<?xml version="1.0" encoding="UTF-8" standalone="no"?>
<!-- Created with Inkscape (http://www.inkscape.org/) -->

<svg
   xmlns:dc="http://purl.org/dc/elements/1.1/"
   xmlns:cc="http://creativecommons.org/ns#"
   xmlns:rdf="http://www.w3.org/1999/02/22-rdf-syntax-ns#"
   xmlns:svg="http://www.w3.org/2000/svg"
   xmlns="http://www.w3.org/2000/svg"
   xmlns:sodipodi="http://sodipodi.sourceforge.net/DTD/sodipodi-0.dtd"
   xmlns:inkscape="http://www.inkscape.org/namespaces/inkscape"
   width="100"
   height="64"
   viewBox="0 0 99.999994 64"
   id="svg11271"
   version="1.1"
   inkscape:version="0.92.2 (unknown)"
   sodipodi:docname="atmosphere_thumb.svg">
  <defs
     id="defs11273" />
  <sodipodi:namedview
     id="base"
     pagecolor="#ffffff"
     bordercolor="#666666"
     borderopacity="1.0"
     inkscape:pageopacity="0.0"
     inkscape:pageshadow="2"
     inkscape:zoom="9.0222222"
     inkscape:cx="24.808663"
     inkscape:cy="21.637934"
     inkscape:document-units="px"
     inkscape:current-layer="layer1"
     showgrid="false"
     fit-margin-top="0"
     fit-margin-left="0"
     fit-margin-right="0"
     fit-margin-bottom="0"
     units="px"
     inkscape:window-width="1855"
     inkscape:window-height="1056"
     inkscape:window-x="65"
     inkscape:window-y="24"
     inkscape:window-maximized="1" />
  <metadata
     id="metadata11276">
    <rdf:RDF>
      <cc:Work
         rdf:about="">
        <dc:format>image/svg+xml</dc:format>
        <dc:type
           rdf:resource="http://purl.org/dc/dcmitype/StillImage" />
        <dc:title></dc:title>
      </cc:Work>
    </rdf:RDF>
  </metadata>
  <g
     inkscape:label="Capa 1"
     inkscape:groupmode="layer"
     id="layer1"
     transform="translate(-112.56819,-591.67192)">
    <path
       id="path6398"
       d="m 193.43023,611.01786 c -0.46291,-0.51483 -4.60277,-5.05944 -7.51259,-5.05944 -1.71944,0 -3.04208,1.43793 -4.21921,2.7161 -0.91263,0.9764 -1.77234,1.91726 -2.56593,1.91726 -0.71423,0 -1.53426,-0.90534 -2.4072,-1.86397 -1.17715,-1.29596 -2.51302,-2.76939 -4.2589,-2.76939 -1.73266,0 -3.02884,1.45566 -4.17953,2.73387 -0.88617,0.99415 -1.70622,1.91726 -2.48656,1.91726 -0.80683,0 -1.66653,-0.94088 -2.57916,-1.95276 -1.13747,-1.26044 -2.43366,-2.68062 -4.08696,-2.68062 -1.71943,0 -3.04207,1.43791 -4.21921,2.71612 -0.91263,0.97638 -1.77234,1.91726 -2.56593,1.91726 -0.78036,0 -1.61362,-0.94088 -2.48656,-1.91726 -1.15069,-1.27821 -2.44689,-2.73387 -4.17953,-2.73387 -1.73267,0 -3.02884,1.45566 -4.17954,2.73387 -0.88617,0.99415 -1.70622,1.91726 -2.48656,1.91726 -1.402,0 -4.32503,-2.48533 -5.95189,-4.24285 -0.56872,-0.62132 -1.40199,-0.49707 -1.86492,0.26629 -0.46293,0.76336 -0.37033,1.88174 0.19839,2.50309 0.47616,0.51484 4.72183,5.04169 7.61842,5.04169 1.73265,0 3.02884,-1.45567 4.17954,-2.73387 0.88616,-0.99414 1.7062,-1.91727 2.48656,-1.91727 0.78036,0 1.61362,0.94088 2.48656,1.91727 1.15069,1.2782 2.44689,2.73387 4.17953,2.73387 1.71944,0 3.04208,-1.43794 4.21923,-2.7161 0.91261,-0.97641 1.77234,-1.91727 2.56591,-1.91727 0.71422,0 1.53426,0.90536 2.40722,1.864 1.17713,1.29593 2.513,2.76937 4.2589,2.76937 1.73264,0 3.02884,-1.45567 4.17953,-2.73387 0.88617,-0.99414 1.7062,-1.91727 2.48656,-1.91727 0.8068,0 1.66653,0.94088 2.57914,1.95277 1.13748,1.26043 2.43366,2.68062 4.08696,2.68062 1.71943,0 3.04207,-1.43792 4.21923,-2.71612 0.91261,-0.97639 1.77233,-1.91727 2.56591,-1.91727 1.38877,0 4.23245,2.46763 5.80638,4.22511 0.25132,0.26626 0.54228,0.40828 0.8465,0.40828 v 0 c 0.38356,0 0.7539,-0.21304 1.03165,-0.63907 0.46293,-0.76337 0.38357,-1.88179 -0.17192,-2.50309 z"
       inkscape:connector-curvature="0"
       style="stroke-width:100.33903503;stroke-miterlimit:4;stroke-dasharray:none" />
    <path
       id="path6400"
       d="m 131.39844,595.37797 c 0.47616,0.51481 4.72183,5.04168 7.61842,5.04168 1.73265,0 3.02884,-1.45571 4.17954,-2.73386 0.88616,-0.99415 1.7062,-1.9173 2.48656,-1.9173 0.78036,0 1.61362,0.9409 2.48656,1.9173 1.15069,1.27815 2.44689,2.73386 4.17953,2.73386 1.71944,0 3.04208,-1.43796 4.21923,-2.71615 0.91261,-0.97638 1.77234,-1.91726 2.56591,-1.91726 0.71422,0 1.53426,0.9054 2.40722,1.86403 1.17713,1.29592 2.513,2.76938 4.2589,2.76938 1.73264,0 3.02884,-1.45571 4.17953,-2.73386 0.88617,-0.99415 1.7062,-1.9173 2.48656,-1.9173 0.8068,0 1.66653,0.9409 2.57914,1.95276 1.13748,1.26044 2.43366,2.68065 4.08696,2.68065 1.71943,0 3.04207,-1.43796 4.21923,-2.71611 0.91261,-0.9764 1.77233,-1.9173 2.56591,-1.9173 1.38877,0 4.23245,2.4676 5.80638,4.2251 0.25132,0.26627 0.54228,0.40831 0.8465,0.40831 v 0 c 0.38356,0 0.7539,-0.21302 1.03165,-0.63908 0.46293,-0.76336 0.38357,-1.88176 -0.17192,-2.50313 -0.46292,-0.53257 -4.60278,-5.05942 -7.5126,-5.05942 -1.71943,0 -3.04207,1.43792 -4.2192,2.71612 -0.91263,0.97639 -1.77234,1.91725 -2.56593,1.91725 -0.71423,0 -1.53426,-0.90536 -2.4072,-1.864 -1.17715,-1.29593 -2.51302,-2.76937 -4.2589,-2.76937 -1.73266,0 -3.02884,1.45569 -4.17953,2.73387 -0.88617,0.99414 -1.70622,1.91727 -2.48656,1.91727 -0.80683,0 -1.66653,-0.94086 -2.57916,-1.95279 -1.13747,-1.26043 -2.43366,-2.68062 -4.08696,-2.68062 -1.71943,0 -3.04207,1.43796 -4.21921,2.71614 -0.91263,0.97641 -1.77234,1.91727 -2.56593,1.91727 -0.78036,0 -1.61362,-0.94086 -2.48656,-1.91727 -1.15069,-1.27818 -2.44689,-2.73387 -4.17953,-2.73387 -1.73267,0 -3.02884,1.45569 -4.17954,2.73387 -0.88617,0.99414 -1.70622,1.91727 -2.48656,1.91727 -1.402,0 -4.32503,-2.48536 -5.95189,-4.24283 -0.56872,-0.62137 -1.40199,-0.49708 -1.86492,0.26624 -0.46293,0.76337 -0.37033,1.88179 0.19839,2.50315 z"
       inkscape:connector-curvature="0"
       style="stroke-width:100.33903503;stroke-miterlimit:4;stroke-dasharray:none" />
    <path
       id="path6402"
       d="m 193.43023,638.5164 c -0.46291,-0.51482 -4.60277,-5.05944 -7.51259,-5.05944 -1.71944,0 -3.04208,1.43794 -4.21921,2.7161 -0.91263,0.9764 -1.77234,1.91727 -2.56593,1.91727 -0.71423,0 -1.53426,-0.90537 -2.4072,-1.864 -1.17715,-1.29594 -2.51302,-2.76937 -4.2589,-2.76937 -1.73266,0 -3.02884,1.45566 -4.17953,2.73387 -0.88617,0.99413 -1.70622,1.91727 -2.48656,1.91727 -0.80683,0 -1.66653,-0.94089 -2.57916,-1.95277 -1.13747,-1.26043 -2.43366,-2.68062 -4.08696,-2.68062 -1.71943,0 -3.04207,1.43791 -4.21921,2.71612 -0.91263,0.97638 -1.77234,1.91727 -2.56593,1.91727 -0.78036,0 -1.61362,-0.94089 -2.48656,-1.91727 -1.15069,-1.27821 -2.44689,-2.73387 -4.17953,-2.73387 -1.73267,0 -3.02884,1.45566 -4.17954,2.73387 -0.88617,0.99413 -1.70622,1.91727 -2.48656,1.91727 -1.402,0 -4.32503,-2.48534 -5.95189,-4.24288 -0.56872,-0.6213 -1.40199,-0.49705 -1.86492,0.26631 -0.46293,0.76337 -0.37033,1.88174 0.19839,2.50309 0.47616,0.51484 4.72183,5.04169 7.61842,5.04169 1.73265,0 3.02884,-1.45566 4.17954,-2.73387 0.88616,-0.99415 1.7062,-1.91726 2.48656,-1.91726 0.78036,0 1.61362,0.94088 2.48656,1.91726 1.15069,1.27821 2.44689,2.73387 4.17953,2.73387 1.71944,0 3.04208,-1.43793 4.21923,-2.7161 0.91261,-0.9764 1.77234,-1.91726 2.56591,-1.91726 0.71422,0 1.53426,0.90534 2.40722,1.86397 1.17713,1.29596 2.513,2.76939 4.2589,2.76939 1.73264,0 3.02884,-1.45566 4.17953,-2.73387 0.88617,-0.99415 1.7062,-1.91726 2.48656,-1.91726 0.8068,0 1.66653,0.94088 2.57914,1.95276 1.13748,1.26044 2.43366,2.68062 4.08696,2.68062 1.71943,0 3.04207,-1.43791 4.21923,-2.71612 0.91261,-0.97638 1.77233,-1.91726 2.56591,-1.91726 1.38877,0 4.23245,2.46762 5.80638,4.22508 0.25132,0.26629 0.54228,0.4083 0.8465,0.4083 v 0 c 0.38356,0 0.7539,-0.21303 1.03165,-0.63907 0.46293,-0.76338 0.38357,-1.88178 -0.17192,-2.50309 z"
       inkscape:connector-curvature="0"
       style="stroke-width:100.33903503;stroke-miterlimit:4;stroke-dasharray:none" />
    <path
       id="path6404"
       d="m 193.43023,624.77601 c -0.46291,-0.51483 -4.60277,-5.05947 -7.51259,-5.05947 -1.71944,0 -3.04208,1.43796 -4.21921,2.71615 -0.91263,0.9764 -1.77234,1.91726 -2.56593,1.91726 -0.71423,0 -1.53426,-0.9054 -2.4072,-1.86403 -1.17715,-1.29592 -2.51302,-2.76938 -4.2589,-2.76938 -1.73266,0 -3.02884,1.45571 -4.17953,2.73386 -0.88617,0.99415 -1.70622,1.9173 -2.48656,1.9173 -0.80683,0 -1.66653,-0.9409 -2.57916,-1.95276 -1.13747,-1.26044 -2.43366,-2.68063 -4.08696,-2.68063 -1.71943,0 -3.04207,1.43794 -4.21921,2.71609 -0.91263,0.9764 -1.77234,1.9173 -2.56593,1.9173 -0.78036,0 -1.61362,-0.9409 -2.48656,-1.9173 -1.15069,-1.27815 -2.44689,-2.73386 -4.17953,-2.73386 -1.73267,0 -3.02884,1.45571 -4.17954,2.73386 -0.88617,0.99415 -1.70622,1.9173 -2.48656,1.9173 -1.402,0 -4.32503,-2.48536 -5.95189,-4.24283 -0.56872,-0.62135 -1.40199,-0.49708 -1.86492,0.26627 -0.46293,0.76336 -0.37033,1.88176 0.19839,2.50308 0.47616,0.51487 4.72183,5.0417 7.61842,5.0417 1.73265,0 3.02884,-1.45569 4.17954,-2.73388 0.88616,-0.99411 1.7062,-1.91726 2.48656,-1.91726 0.78036,0 1.61362,0.9409 2.48656,1.91726 1.15069,1.27819 2.44689,2.73388 4.17953,2.73388 1.71944,0 3.04208,-1.43792 4.21923,-2.71613 0.91261,-0.97638 1.77234,-1.91724 2.56591,-1.91724 0.71422,0 1.53426,0.90538 2.40722,1.86401 1.17713,1.29592 2.513,2.76936 4.2589,2.76936 1.73264,0 3.02884,-1.45569 4.17953,-2.73388 0.88617,-0.99411 1.7062,-1.91726 2.48656,-1.91726 0.8068,0 1.66653,0.9409 2.57914,1.95278 1.13748,1.26044 2.43366,2.68063 4.08696,2.68063 1.71943,0 3.04207,-1.43796 4.21923,-2.71615 0.91261,-0.97636 1.77233,-1.91726 2.56591,-1.91726 1.38877,0 4.23245,2.46759 5.80638,4.22508 0.25132,0.26631 0.54228,0.40833 0.8465,0.40833 v 0 c 0.38356,0 0.7539,-0.23075 1.03165,-0.6391 0.46293,-0.76334 0.38357,-1.88176 -0.17192,-2.50308 z"
       inkscape:connector-curvature="0"
       style="stroke-width:100.33903503;stroke-miterlimit:4;stroke-dasharray:none" />
    <path
       id="path6406"
       d="m 193.43023,652.27453 c -0.46291,-0.53258 -4.60277,-5.05947 -7.51259,-5.05947 -1.71944,0 -3.04208,1.43798 -4.21921,2.71617 -0.91263,0.9764 -1.77234,1.91726 -2.56593,1.91726 -0.71423,0 -1.53426,-0.9054 -2.4072,-1.86403 -1.17715,-1.29592 -2.51302,-2.7694 -4.2589,-2.7694 -1.73266,0 -3.02884,1.45573 -4.17953,2.73388 -0.88617,0.99415 -1.70622,1.9173 -2.48656,1.9173 -0.80683,0 -1.66653,-0.9409 -2.57916,-1.95276 -1.13747,-1.26044 -2.43366,-2.68065 -4.08696,-2.68065 -1.71943,0 -3.04207,1.43796 -4.21921,2.71611 -0.91263,0.9764 -1.77234,1.9173 -2.56593,1.9173 -0.78036,0 -1.61362,-0.9409 -2.48656,-1.9173 -1.15069,-1.27815 -2.44689,-2.73388 -4.17953,-2.73388 -1.73267,0 -3.02884,1.45573 -4.17954,2.73388 -0.88617,0.99415 -1.70622,1.9173 -2.48656,1.9173 -1.402,0 -4.32503,-2.48536 -5.95189,-4.24285 -0.56872,-0.62132 -1.40199,-0.49705 -1.86492,0.26629 -0.46293,0.76336 -0.37033,1.88176 0.19839,2.50309 0.47616,0.51486 4.72183,5.04169 7.61842,5.04169 1.73265,0 3.02884,-1.45569 4.17954,-2.73388 0.88616,-0.99413 1.7062,-1.91726 2.48656,-1.91726 0.78036,0 1.61362,0.9409 2.48656,1.91726 1.15069,1.27819 2.44689,2.73388 4.17953,2.73388 1.71944,0 3.04208,-1.43792 4.21923,-2.71613 0.91261,-0.97638 1.77234,-1.91724 2.56591,-1.91724 0.71422,0 1.53426,0.90536 2.40722,1.864 1.17713,1.29593 2.513,2.76937 4.2589,2.76937 1.73264,0 3.02884,-1.45569 4.17953,-2.73388 0.88617,-0.99413 1.7062,-1.91726 2.48656,-1.91726 0.8068,0 1.66653,0.9409 2.57914,1.95278 1.13748,1.26044 2.43366,2.68063 4.08696,2.68063 1.71943,0 3.04207,-1.43796 4.21923,-2.71615 0.91261,-0.97636 1.77233,-1.91726 2.56591,-1.91726 1.38877,0 4.23245,2.46759 5.80638,4.22508 0.25132,0.26631 0.54228,0.40833 0.8465,0.40833 v 0 c 0.38356,0 0.7539,-0.21304 1.03165,-0.63911 0.46293,-0.76335 0.38357,-1.88175 -0.17192,-2.50309 z"
       inkscape:connector-curvature="0"
       style="stroke-width:100.33903503;stroke-miterlimit:4;stroke-dasharray:none" />
  </g>
</svg>
