<?xml version="1.0" encoding="UTF-8" standalone="no"?>
<!-- Created with Inkscape (http://www.inkscape.org/) -->

<svg
   xmlns:dc="http://purl.org/dc/elements/1.1/"
   xmlns:cc="http://creativecommons.org/ns#"
   xmlns:rdf="http://www.w3.org/1999/02/22-rdf-syntax-ns#"
   xmlns:svg="http://www.w3.org/2000/svg"
   xmlns="http://www.w3.org/2000/svg"
   xmlns:sodipodi="http://sodipodi.sourceforge.net/DTD/sodipodi-0.dtd"
   xmlns:inkscape="http://www.inkscape.org/namespaces/inkscape"
   width="64"
   height="64"
   viewBox="0 0 63.999996 64"
   id="svg11271"
   version="1.1"
   inkscape:version="0.92.2 (unknown)"
   sodipodi:docname="atmosphere_color.svg">
  <defs
     id="defs11273" />
  <sodipodi:namedview
     id="base"
     pagecolor="#ffffff"
     bordercolor="#666666"
     borderopacity="1.0"
     inkscape:pageopacity="0.0"
     inkscape:pageshadow="2"
     inkscape:zoom="9.0222219"
     inkscape:cx="14.896745"
     inkscape:cy="23.019923"
     inkscape:document-units="px"
     inkscape:current-layer="layer1"
     showgrid="false"
     fit-margin-top="0"
     fit-margin-left="0"
     fit-margin-right="0"
     fit-margin-bottom="0"
     units="px"
     inkscape:window-width="1855"
     inkscape:window-height="1056"
     inkscape:window-x="65"
     inkscape:window-y="24"
     inkscape:window-maximized="1" />
  <metadata
     id="metadata11276">
    <rdf:RDF>
      <cc:Work
         rdf:about="">
        <dc:format>image/svg+xml</dc:format>
        <dc:type
           rdf:resource="http://purl.org/dc/dcmitype/StillImage" />
        <dc:title></dc:title>
      </cc:Work>
    </rdf:RDF>
  </metadata>
  <g
     inkscape:label="Capa 1"
     inkscape:groupmode="layer"
     id="layer1"
     transform="translate(-112.56819,-591.67192)">
    <path
       sodipodi:type="inkscape:offset"
       inkscape:radius="-0.27553228"
       inkscape:original="M 120.14453 624.33398 C 119.26976 624.33398 118.61415 625.04907 118.0332 625.67773 C 117.5858 626.16668 117.17327 626.62109 116.7793 626.62109 C 116.07147 626.62109 114.59479 625.39955 113.77344 624.53516 C 113.48631 624.22955 113.06575 624.29059 112.83203 624.66602 C 112.59831 625.04147 112.64451 625.59087 112.93164 625.89648 C 113.17204 626.14968 115.3169 628.37695 116.7793 628.37695 C 117.65406 628.37695 118.30772 627.65989 118.88867 627.03125 C 119.33607 626.54229 119.75055 626.08789 120.14453 626.08789 C 120.53851 626.08789 120.95967 626.55102 121.40039 627.03125 C 121.98134 627.65989 122.63501 628.37695 123.50977 628.37695 C 124.37786 628.37695 125.04632 627.66968 125.64062 627.04102 C 126.10138 626.5608 126.5349 626.09766 126.93555 626.09766 C 127.29614 626.09766 127.70966 626.54218 128.15039 627.01367 C 128.74469 627.65105 129.41933 628.37695 130.30078 628.37695 C 131.17554 628.37695 131.82921 627.65989 132.41016 627.03125 C 132.85756 626.54229 133.27204 626.08789 133.66602 626.08789 C 134.07335 626.08789 134.508 626.55116 134.96875 627.04883 C 135.54303 627.66876 136.19655 628.36719 137.03125 628.36719 C 137.89934 628.36719 138.5678 627.65989 139.16211 627.03125 C 139.62286 626.55102 140.05638 626.08789 140.45703 626.08789 C 141.15818 626.08789 142.59404 627.30162 143.38867 628.16602 C 143.51555 628.29698 143.66282 628.36719 143.81641 628.36719 C 144.01006 628.36719 144.19766 628.26228 144.33789 628.05273 C 144.57161 627.67728 144.53045 627.12788 144.25 626.82227 C 144.01629 626.56033 141.92611 624.33398 140.45703 624.33398 C 139.58894 624.33398 138.92243 625.04125 138.32812 625.66992 C 137.86737 626.15014 137.43191 626.61328 137.03125 626.61328 C 136.67066 626.61328 136.25713 626.1668 135.81641 625.69531 C 135.2221 625.05792 134.54746 624.33398 133.66602 624.33398 C 132.79125 624.33398 132.13759 625.04907 131.55664 625.67773 C 131.10924 626.16668 130.69475 626.62109 130.30078 626.62109 C 129.89344 626.62109 129.45881 626.15786 128.99805 625.66016 C 128.42378 625.04023 127.77025 624.3418 126.93555 624.3418 C 126.06746 624.3418 125.39899 625.04907 124.80469 625.67773 C 124.34393 626.15796 123.91043 626.62109 123.50977 626.62109 C 123.11579 626.62109 122.69463 626.15796 122.25391 625.67773 C 121.67296 625.04907 121.01929 624.33398 120.14453 624.33398 z "
       style="fill:#00807e;fill-opacity:1;stroke-width:50;stroke-miterlimit:4;stroke-dasharray:none"
       id="path6400"
       d="m 120.14453,624.60938 c -0.72461,0 -1.32669,0.62659 -1.9082,1.25585 -0.22314,0.24387 -0.44384,0.48483 -0.67383,0.67774 -0.23032,0.19319 -0.48028,0.35351 -0.7832,0.35351 -0.51242,0 -1.04607,-0.3477 -1.62305,-0.77343 -0.57698,-0.42573 -1.1592,-0.95346 -1.58203,-1.39844 a 0.27555983,0.27555983 0 0 1 -0.002,0 c -0.0913,-0.0972 -0.17188,-0.11871 -0.25196,-0.10742 -0.0801,0.0113 -0.17269,0.0648 -0.2539,0.19531 -0.16138,0.25924 -0.11799,0.69827 0.0664,0.89453 0.11685,0.12306 0.70511,0.73476 1.43555,1.30859 0.73098,0.57427 1.61962,1.08594 2.21094,1.08594 0.72418,0 1.32433,-0.62813 1.90625,-1.25781 0.22327,-0.24402 0.44333,-0.48681 0.67383,-0.67969 0.23082,-0.19316 0.48223,-0.35156 0.78515,-0.35156 0.30496,0 0.55575,0.16143 0.78711,0.35547 0.23102,0.19375 0.45211,0.4363 0.67188,0.67578 0.58191,0.62968 1.18206,1.25781 1.90625,1.25781 0.71843,0 1.33537,-0.62132 1.92968,-1.25 a 0.27555983,0.27555983 0 0 1 0.002,-0.002 c 0.22963,-0.23933 0.45786,-0.48061 0.69531,-0.67383 0.23744,-0.19322 0.49233,-0.35351 0.79883,-0.35351 0.29351,0 0.52974,0.1584 0.7539,0.3457 0.22417,0.1873 0.44189,0.42261 0.66211,0.6582 0.59453,0.63763 1.21904,1.27539 1.94922,1.27539 0.72419,0 1.32434,-0.62813 1.90625,-1.25781 0.22328,-0.24402 0.44333,-0.48681 0.67383,-0.67969 0.23083,-0.19316 0.48224,-0.35156 0.78516,-0.35156 0.30812,0 0.56727,0.15925 0.80664,0.35547 0.23903,0.19594 0.46683,0.44446 0.69726,0.69336 0.57358,0.61917 1.18033,1.23047 1.86133,1.23047 0.71843,0 1.33535,-0.62134 1.92969,-1.25 a 0.27555983,0.27555983 0 0 1 0.002,-0.002 c 0.22963,-0.23933 0.45787,-0.48061 0.69531,-0.67382 0.23745,-0.19322 0.49234,-0.35352 0.79883,-0.35352 0.50956,0 1.03276,0.34523 1.5957,0.76953 0.56071,0.42261 1.12382,0.94794 1.53321,1.39258 0.087,0.0898 0.16084,0.11719 0.23047,0.11719 0.0922,0 0.18855,-0.0443 0.28711,-0.1875 0.16119,-0.26096 0.12131,-0.70257 -0.0566,-0.89649 a 0.27555983,0.27555983 0 0 1 -0.002,-0.002 c -0.10337,-0.11585 -0.68357,-0.7361 -1.40039,-1.31055 -0.71682,-0.57444 -1.59215,-1.08594 -2.1875,-1.08593 -0.71843,0 -1.3332,0.62109 -1.92773,1.25 a 0.27555983,0.27555983 0 0 1 -0.002,0.002 c -0.22976,0.23947 -0.45932,0.48063 -0.69726,0.67383 -0.23795,0.19319 -0.49233,0.35351 -0.79883,0.35351 -0.29402,0 -0.52982,-0.15793 -0.75391,-0.3457 -0.22408,-0.18777 -0.44202,-0.4247 -0.66211,-0.66016 -0.59434,-0.63743 -1.21864,-1.27343 -1.94921,-1.27343 -0.72462,0 -1.32454,0.62637 -1.90625,1.25585 -0.22328,0.24402 -0.44334,0.48681 -0.67383,0.67969 -0.23083,0.19316 -0.48224,0.35156 -0.78516,0.35156 -0.30811,0 -0.56727,-0.15925 -0.80664,-0.35546 -0.23903,-0.19594 -0.46683,-0.44445 -0.69726,-0.69336 h -0.002 c -0.57327,-0.6188 -1.17876,-1.23047 -1.85937,-1.23047 -0.71843,0 -1.33538,0.62132 -1.92969,1.25 a 0.27555983,0.27555983 0 0 1 -0.002,0.002 c -0.22964,0.23934 -0.45787,0.48061 -0.69532,0.67383 -0.23744,0.19322 -0.49233,0.35351 -0.79882,0.35351 -0.30496,0 -0.55576,-0.16143 -0.78711,-0.35546 -0.23102,-0.19376 -0.45211,-0.43631 -0.67188,-0.67579 -0.58171,-0.62948 -1.18165,-1.25586 -1.90625,-1.25585 z"
       transform="translate(15.18473,-17.068966)" />
    <path
       style="opacity:1;fill:#00807e;fill-opacity:1;stroke:#000000;stroke-width:0.5;stroke-miterlimit:4;stroke-dasharray:none;stroke-dashoffset:0;stroke-opacity:1"
       d="m 131.44614,610.90139 c -0.66089,-0.21136 -1.5237,-0.79503 -2.51702,-1.70272 -0.63212,-0.57762 -0.74385,-0.73632 -0.74354,-1.05614 2.6e-4,-0.26374 0.17958,-0.5708 0.33333,-0.5708 0.0676,0 0.34258,0.21709 0.67969,0.53655 1.10175,1.04404 2.08145,1.67508 2.67727,1.7245 0.43742,0.0363 0.70771,-0.14161 1.61174,-1.06071 0.47665,-0.48459 0.89707,-0.85888 1.0993,-0.97866 0.29088,-0.1723 0.37106,-0.19397 0.71759,-0.19397 0.5964,0 0.79233,0.1226 1.85871,1.16303 0.94401,0.92104 1.17074,1.08143 1.52874,1.08143 0.37453,0 0.67736,-0.20727 1.57536,-1.0782 0.93692,-0.9087 1.26144,-1.1281 1.74184,-1.17769 0.25687,-0.0265 0.35128,-0.006 0.66813,0.1418 0.3051,0.14277 0.52041,0.32141 1.24359,1.03178 0.91924,0.90295 1.17755,1.0793 1.58285,1.08057 0.3525,0.001 0.70889,-0.25286 1.52682,-1.08801 0.84874,-0.86663 1.20861,-1.11704 1.6744,-1.16512 0.61189,-0.0631 1.18926,0.28277 2.07609,1.24384 0.87458,0.9478 1.32734,1.16371 1.87963,0.89636 0.16996,-0.0823 0.57838,-0.43308 1.13961,-0.97884 1.24024,-1.20604 1.62889,-1.36808 2.47294,-1.03105 0.76611,0.30591 1.5996,0.90491 2.51376,1.80656 0.52944,0.52219 0.64266,0.74891 0.54463,1.0907 -0.0609,0.21237 -0.20523,0.39109 -0.31582,0.39109 -0.0418,0 -0.35477,-0.264 -0.69543,-0.58667 -1.52104,-1.44072 -2.47331,-1.91787 -3.14437,-1.57552 -0.13144,0.0671 -0.62997,0.50212 -1.10783,0.96681 -1.00916,0.98134 -1.30639,1.16781 -1.85876,1.16617 -0.50946,-0.002 -0.79836,-0.18933 -1.78756,-1.16214 -0.91893,-0.90371 -1.1726,-1.08081 -1.54806,-1.08081 -0.41267,0 -0.60245,0.12807 -1.48518,1.00225 -0.90601,0.89723 -1.17862,1.10985 -1.55982,1.21658 -0.64106,0.17949 -1.11967,-0.0715 -2.21662,-1.16263 -0.85466,-0.85008 -1.1468,-1.0562 -1.49697,-1.0562 -0.36895,0 -0.67272,0.20855 -1.56929,1.07742 -0.91943,0.89102 -1.25631,1.12243 -1.71266,1.17648 -0.58169,0.0689 -0.99948,-0.1871 -2.05795,-1.26096 -0.4245,-0.43067 -0.84909,-0.80963 -0.98148,-0.87599 -0.28149,-0.1411 -0.6206,-0.14998 -0.89438,-0.0234 -0.11129,0.0514 -0.57642,0.4629 -1.03363,0.91434 -0.88121,0.8701 -1.11249,1.05553 -1.47697,1.18412 -0.29621,0.10451 -0.55678,0.0973 -0.94268,-0.0261 z"
       id="path824"
       inkscape:connector-curvature="0" />
    <path
       transform="translate(15.18278,-11.068966)"
       sodipodi:type="inkscape:offset"
       inkscape:radius="-0.27553228"
       inkscape:original="M 120.14453 624.33398 C 119.26976 624.33398 118.61415 625.04907 118.0332 625.67773 C 117.5858 626.16668 117.17327 626.62109 116.7793 626.62109 C 116.07147 626.62109 114.59479 625.39955 113.77344 624.53516 C 113.48631 624.22955 113.06575 624.29059 112.83203 624.66602 C 112.59831 625.04147 112.64451 625.59087 112.93164 625.89648 C 113.17204 626.14968 115.3169 628.37695 116.7793 628.37695 C 117.65406 628.37695 118.30772 627.65989 118.88867 627.03125 C 119.33607 626.54229 119.75055 626.08789 120.14453 626.08789 C 120.53851 626.08789 120.95967 626.55102 121.40039 627.03125 C 121.98134 627.65989 122.63501 628.37695 123.50977 628.37695 C 124.37786 628.37695 125.04632 627.66968 125.64062 627.04102 C 126.10138 626.5608 126.5349 626.09766 126.93555 626.09766 C 127.29614 626.09766 127.70966 626.54218 128.15039 627.01367 C 128.74469 627.65105 129.41933 628.37695 130.30078 628.37695 C 131.17554 628.37695 131.82921 627.65989 132.41016 627.03125 C 132.85756 626.54229 133.27204 626.08789 133.66602 626.08789 C 134.07335 626.08789 134.508 626.55116 134.96875 627.04883 C 135.54303 627.66876 136.19655 628.36719 137.03125 628.36719 C 137.89934 628.36719 138.5678 627.65989 139.16211 627.03125 C 139.62286 626.55102 140.05638 626.08789 140.45703 626.08789 C 141.15818 626.08789 142.59404 627.30162 143.38867 628.16602 C 143.51555 628.29698 143.66282 628.36719 143.81641 628.36719 C 144.01006 628.36719 144.19766 628.26228 144.33789 628.05273 C 144.57161 627.67728 144.53045 627.12788 144.25 626.82227 C 144.01629 626.56033 141.92611 624.33398 140.45703 624.33398 C 139.58894 624.33398 138.92243 625.04125 138.32812 625.66992 C 137.86737 626.15014 137.43191 626.61328 137.03125 626.61328 C 136.67066 626.61328 136.25713 626.1668 135.81641 625.69531 C 135.2221 625.05792 134.54746 624.33398 133.66602 624.33398 C 132.79125 624.33398 132.13759 625.04907 131.55664 625.67773 C 131.10924 626.16668 130.69475 626.62109 130.30078 626.62109 C 129.89344 626.62109 129.45881 626.15786 128.99805 625.66016 C 128.42378 625.04023 127.77025 624.3418 126.93555 624.3418 C 126.06746 624.3418 125.39899 625.04907 124.80469 625.67773 C 124.34393 626.15796 123.91043 626.62109 123.50977 626.62109 C 123.11579 626.62109 122.69463 626.15796 122.25391 625.67773 C 121.67296 625.04907 121.01929 624.33398 120.14453 624.33398 z "
       style="fill:#00807e;fill-opacity:1;stroke-width:50;stroke-miterlimit:4;stroke-dasharray:none"
       id="path6400-6"
       d="m 120.14453,624.60938 c -0.72461,0 -1.32669,0.62659 -1.9082,1.25585 -0.22314,0.24387 -0.44384,0.48483 -0.67383,0.67774 -0.23032,0.19319 -0.48028,0.35351 -0.7832,0.35351 -0.51242,0 -1.04607,-0.3477 -1.62305,-0.77343 -0.57698,-0.42573 -1.1592,-0.95346 -1.58203,-1.39844 a 0.27555983,0.27555983 0 0 1 -0.002,0 c -0.0913,-0.0972 -0.17188,-0.11871 -0.25196,-0.10742 -0.0801,0.0113 -0.17269,0.0648 -0.2539,0.19531 -0.16138,0.25924 -0.11799,0.69827 0.0664,0.89453 0.11685,0.12306 0.70511,0.73476 1.43555,1.30859 0.73098,0.57427 1.61962,1.08594 2.21094,1.08594 0.72418,0 1.32433,-0.62813 1.90625,-1.25781 0.22327,-0.24402 0.44333,-0.48681 0.67383,-0.67969 0.23082,-0.19316 0.48223,-0.35156 0.78515,-0.35156 0.30496,0 0.55575,0.16143 0.78711,0.35547 0.23102,0.19375 0.45211,0.4363 0.67188,0.67578 0.58191,0.62968 1.18206,1.25781 1.90625,1.25781 0.71843,0 1.33537,-0.62132 1.92968,-1.25 a 0.27555983,0.27555983 0 0 1 0.002,-0.002 c 0.22963,-0.23933 0.45786,-0.48061 0.69531,-0.67383 0.23744,-0.19322 0.49233,-0.35351 0.79883,-0.35351 0.29351,0 0.52974,0.1584 0.7539,0.3457 0.22417,0.1873 0.44189,0.42261 0.66211,0.6582 0.59453,0.63763 1.21904,1.27539 1.94922,1.27539 0.72419,0 1.32434,-0.62813 1.90625,-1.25781 0.22328,-0.24402 0.44333,-0.48681 0.67383,-0.67969 0.23083,-0.19316 0.48224,-0.35156 0.78516,-0.35156 0.30812,0 0.56727,0.15925 0.80664,0.35547 0.23903,0.19594 0.46683,0.44446 0.69726,0.69336 0.57358,0.61917 1.18033,1.23047 1.86133,1.23047 0.71843,0 1.33535,-0.62134 1.92969,-1.25 a 0.27555983,0.27555983 0 0 1 0.002,-0.002 c 0.22963,-0.23933 0.45787,-0.48061 0.69531,-0.67382 0.23745,-0.19322 0.49234,-0.35352 0.79883,-0.35352 0.50956,0 1.03276,0.34523 1.5957,0.76953 0.56071,0.42261 1.12382,0.94794 1.53321,1.39258 0.087,0.0898 0.16084,0.11719 0.23047,0.11719 0.0922,0 0.18855,-0.0443 0.28711,-0.1875 0.16119,-0.26096 0.12131,-0.70257 -0.0566,-0.89649 a 0.27555983,0.27555983 0 0 1 -0.002,-0.002 c -0.10337,-0.11585 -0.68357,-0.7361 -1.40039,-1.31055 -0.71682,-0.57444 -1.59215,-1.08594 -2.1875,-1.08593 -0.71843,0 -1.3332,0.62109 -1.92773,1.25 a 0.27555983,0.27555983 0 0 1 -0.002,0.002 c -0.22976,0.23947 -0.45932,0.48063 -0.69726,0.67383 -0.23795,0.19319 -0.49233,0.35351 -0.79883,0.35351 -0.29402,0 -0.52982,-0.15793 -0.75391,-0.3457 -0.22408,-0.18777 -0.44202,-0.4247 -0.66211,-0.66016 -0.59434,-0.63743 -1.21864,-1.27343 -1.94921,-1.27343 -0.72462,0 -1.32454,0.62637 -1.90625,1.25585 -0.22328,0.24402 -0.44334,0.48681 -0.67383,0.67969 -0.23083,0.19316 -0.48224,0.35156 -0.78516,0.35156 -0.30811,0 -0.56727,-0.15925 -0.80664,-0.35546 -0.23903,-0.19594 -0.46683,-0.44445 -0.69726,-0.69336 h -0.002 c -0.57327,-0.6188 -1.17876,-1.23047 -1.85937,-1.23047 -0.71843,0 -1.33538,0.62132 -1.92969,1.25 a 0.27555983,0.27555983 0 0 1 -0.002,0.002 c -0.22964,0.23934 -0.45787,0.48061 -0.69532,0.67383 -0.23744,0.19322 -0.49233,0.35351 -0.79882,0.35351 -0.30496,0 -0.55576,-0.16143 -0.78711,-0.35546 -0.23102,-0.19376 -0.45211,-0.43631 -0.67188,-0.67579 -0.58171,-0.62948 -1.18165,-1.25586 -1.90625,-1.25585 z" />
    <path
       style="opacity:1;fill:#00807e;fill-opacity:1;stroke:#000000;stroke-width:0.5;stroke-miterlimit:4;stroke-dasharray:none;stroke-dashoffset:0;stroke-opacity:1"
       d="m 131.44418,616.90139 c -0.66088,-0.21136 -1.52369,-0.79503 -2.51702,-1.70272 -0.63212,-0.57762 -0.74385,-0.73632 -0.74353,-1.05614 2.6e-4,-0.26374 0.17957,-0.5708 0.33333,-0.5708 0.0676,0 0.34258,0.21709 0.67969,0.53655 1.10175,1.04404 2.08144,1.67509 2.67726,1.7245 0.43743,0.0363 0.70772,-0.14161 1.61175,-1.06071 0.47664,-0.48459 0.89707,-0.85888 1.0993,-0.97866 0.29088,-0.17229 0.37106,-0.19397 0.71758,-0.19397 0.5964,0 0.79233,0.1226 1.85871,1.16303 0.94402,0.92104 1.17075,1.08143 1.52875,1.08143 0.37452,0 0.67736,-0.20727 1.57536,-1.0782 0.93692,-0.9087 1.26143,-1.1281 1.74184,-1.17769 0.25687,-0.0265 0.35128,-0.006 0.66812,0.1418 0.30511,0.14277 0.52042,0.32141 1.24359,1.03178 0.91924,0.90295 1.17756,1.0793 1.58286,1.08057 0.3525,10e-4 0.70889,-0.25286 1.52681,-1.08801 0.84875,-0.86663 1.20862,-1.11704 1.67441,-1.16512 0.61189,-0.0631 1.18926,0.28277 2.07609,1.24384 0.87458,0.9478 1.32734,1.16371 1.87963,0.89636 0.16995,-0.0823 0.57837,-0.43308 1.13961,-0.97884 1.24024,-1.20604 1.62888,-1.36808 2.47294,-1.03105 0.76611,0.30591 1.59959,0.90491 2.51376,1.80656 0.52944,0.52219 0.64265,0.74891 0.54463,1.0907 -0.0609,0.21237 -0.20523,0.39109 -0.31582,0.39109 -0.0418,0 -0.35478,-0.264 -0.69544,-0.58667 -1.52103,-1.44072 -2.47331,-1.91787 -3.14436,-1.57552 -0.13145,0.0671 -0.62997,0.50212 -1.10784,0.96681 -1.00916,0.98134 -1.30638,1.16782 -1.85875,1.16617 -0.50946,-0.002 -0.79836,-0.18933 -1.78756,-1.16214 -0.91894,-0.90371 -1.1726,-1.08081 -1.54806,-1.08081 -0.41268,0 -0.60246,0.12807 -1.48519,1.00225 -0.906,0.89723 -1.17861,1.10985 -1.55981,1.21658 -0.64107,0.17949 -1.11967,-0.0715 -2.21663,-1.16263 -0.85465,-0.85008 -1.14679,-1.0562 -1.49697,-1.0562 -0.36894,0 -0.67271,0.20855 -1.56928,1.07742 -0.91943,0.89102 -1.25632,1.12243 -1.71267,1.17648 -0.58169,0.0689 -0.99948,-0.1871 -2.05795,-1.26096 -0.4245,-0.43067 -0.84909,-0.80963 -0.98147,-0.87599 -0.28149,-0.1411 -0.62061,-0.14998 -0.89439,-0.0234 -0.11129,0.0514 -0.57642,0.4629 -1.03362,0.91434 -0.88121,0.8701 -1.1125,1.05553 -1.47697,1.18412 -0.29622,0.10451 -0.55679,0.0973 -0.94269,-0.0261 z"
       id="path824-7"
       inkscape:connector-curvature="0" />
    <path
       transform="translate(15.18474,-5.0689662)"
       sodipodi:type="inkscape:offset"
       inkscape:radius="-0.27553228"
       inkscape:original="M 120.14453 624.33398 C 119.26976 624.33398 118.61415 625.04907 118.0332 625.67773 C 117.5858 626.16668 117.17327 626.62109 116.7793 626.62109 C 116.07147 626.62109 114.59479 625.39955 113.77344 624.53516 C 113.48631 624.22955 113.06575 624.29059 112.83203 624.66602 C 112.59831 625.04147 112.64451 625.59087 112.93164 625.89648 C 113.17204 626.14968 115.3169 628.37695 116.7793 628.37695 C 117.65406 628.37695 118.30772 627.65989 118.88867 627.03125 C 119.33607 626.54229 119.75055 626.08789 120.14453 626.08789 C 120.53851 626.08789 120.95967 626.55102 121.40039 627.03125 C 121.98134 627.65989 122.63501 628.37695 123.50977 628.37695 C 124.37786 628.37695 125.04632 627.66968 125.64062 627.04102 C 126.10138 626.5608 126.5349 626.09766 126.93555 626.09766 C 127.29614 626.09766 127.70966 626.54218 128.15039 627.01367 C 128.74469 627.65105 129.41933 628.37695 130.30078 628.37695 C 131.17554 628.37695 131.82921 627.65989 132.41016 627.03125 C 132.85756 626.54229 133.27204 626.08789 133.66602 626.08789 C 134.07335 626.08789 134.508 626.55116 134.96875 627.04883 C 135.54303 627.66876 136.19655 628.36719 137.03125 628.36719 C 137.89934 628.36719 138.5678 627.65989 139.16211 627.03125 C 139.62286 626.55102 140.05638 626.08789 140.45703 626.08789 C 141.15818 626.08789 142.59404 627.30162 143.38867 628.16602 C 143.51555 628.29698 143.66282 628.36719 143.81641 628.36719 C 144.01006 628.36719 144.19766 628.26228 144.33789 628.05273 C 144.57161 627.67728 144.53045 627.12788 144.25 626.82227 C 144.01629 626.56033 141.92611 624.33398 140.45703 624.33398 C 139.58894 624.33398 138.92243 625.04125 138.32812 625.66992 C 137.86737 626.15014 137.43191 626.61328 137.03125 626.61328 C 136.67066 626.61328 136.25713 626.1668 135.81641 625.69531 C 135.2221 625.05792 134.54746 624.33398 133.66602 624.33398 C 132.79125 624.33398 132.13759 625.04907 131.55664 625.67773 C 131.10924 626.16668 130.69475 626.62109 130.30078 626.62109 C 129.89344 626.62109 129.45881 626.15786 128.99805 625.66016 C 128.42378 625.04023 127.77025 624.3418 126.93555 624.3418 C 126.06746 624.3418 125.39899 625.04907 124.80469 625.67773 C 124.34393 626.15796 123.91043 626.62109 123.50977 626.62109 C 123.11579 626.62109 122.69463 626.15796 122.25391 625.67773 C 121.67296 625.04907 121.01929 624.33398 120.14453 624.33398 z "
       style="fill:#00807e;fill-opacity:1;stroke-width:50;stroke-miterlimit:4;stroke-dasharray:none"
       id="path6400-6-5"
       d="m 120.14453,624.60938 c -0.72461,0 -1.32669,0.62659 -1.9082,1.25585 -0.22314,0.24387 -0.44384,0.48483 -0.67383,0.67774 -0.23032,0.19319 -0.48028,0.35351 -0.7832,0.35351 -0.51242,0 -1.04607,-0.3477 -1.62305,-0.77343 -0.57698,-0.42573 -1.1592,-0.95346 -1.58203,-1.39844 a 0.27555983,0.27555983 0 0 1 -0.002,0 c -0.0913,-0.0972 -0.17188,-0.11871 -0.25196,-0.10742 -0.0801,0.0113 -0.17269,0.0648 -0.2539,0.19531 -0.16138,0.25924 -0.11799,0.69827 0.0664,0.89453 0.11685,0.12306 0.70511,0.73476 1.43555,1.30859 0.73098,0.57427 1.61962,1.08594 2.21094,1.08594 0.72418,0 1.32433,-0.62813 1.90625,-1.25781 0.22327,-0.24402 0.44333,-0.48681 0.67383,-0.67969 0.23082,-0.19316 0.48223,-0.35156 0.78515,-0.35156 0.30496,0 0.55575,0.16143 0.78711,0.35547 0.23102,0.19375 0.45211,0.4363 0.67188,0.67578 0.58191,0.62968 1.18206,1.25781 1.90625,1.25781 0.71843,0 1.33537,-0.62132 1.92968,-1.25 a 0.27555983,0.27555983 0 0 1 0.002,-0.002 c 0.22963,-0.23933 0.45786,-0.48061 0.69531,-0.67383 0.23744,-0.19322 0.49233,-0.35351 0.79883,-0.35351 0.29351,0 0.52974,0.1584 0.7539,0.3457 0.22417,0.1873 0.44189,0.42261 0.66211,0.6582 0.59453,0.63763 1.21904,1.27539 1.94922,1.27539 0.72419,0 1.32434,-0.62813 1.90625,-1.25781 0.22328,-0.24402 0.44333,-0.48681 0.67383,-0.67969 0.23083,-0.19316 0.48224,-0.35156 0.78516,-0.35156 0.30812,0 0.56727,0.15925 0.80664,0.35547 0.23903,0.19594 0.46683,0.44446 0.69726,0.69336 0.57358,0.61917 1.18033,1.23047 1.86133,1.23047 0.71843,0 1.33535,-0.62134 1.92969,-1.25 a 0.27555983,0.27555983 0 0 1 0.002,-0.002 c 0.22963,-0.23933 0.45787,-0.48061 0.69531,-0.67382 0.23745,-0.19322 0.49234,-0.35352 0.79883,-0.35352 0.50956,0 1.03276,0.34523 1.5957,0.76953 0.56071,0.42261 1.12382,0.94794 1.53321,1.39258 0.087,0.0898 0.16084,0.11719 0.23047,0.11719 0.0922,0 0.18855,-0.0443 0.28711,-0.1875 0.16119,-0.26096 0.12131,-0.70257 -0.0566,-0.89649 a 0.27555983,0.27555983 0 0 1 -0.002,-0.002 c -0.10337,-0.11585 -0.68357,-0.7361 -1.40039,-1.31055 -0.71682,-0.57444 -1.59215,-1.08594 -2.1875,-1.08593 -0.71843,0 -1.3332,0.62109 -1.92773,1.25 a 0.27555983,0.27555983 0 0 1 -0.002,0.002 c -0.22976,0.23947 -0.45932,0.48063 -0.69726,0.67383 -0.23795,0.19319 -0.49233,0.35351 -0.79883,0.35351 -0.29402,0 -0.52982,-0.15793 -0.75391,-0.3457 -0.22408,-0.18777 -0.44202,-0.4247 -0.66211,-0.66016 -0.59434,-0.63743 -1.21864,-1.27343 -1.94921,-1.27343 -0.72462,0 -1.32454,0.62637 -1.90625,1.25585 -0.22328,0.24402 -0.44334,0.48681 -0.67383,0.67969 -0.23083,0.19316 -0.48224,0.35156 -0.78516,0.35156 -0.30811,0 -0.56727,-0.15925 -0.80664,-0.35546 -0.23903,-0.19594 -0.46683,-0.44445 -0.69726,-0.69336 h -0.002 c -0.57327,-0.6188 -1.17876,-1.23047 -1.85937,-1.23047 -0.71843,0 -1.33538,0.62132 -1.92969,1.25 a 0.27555983,0.27555983 0 0 1 -0.002,0.002 c -0.22964,0.23934 -0.45787,0.48061 -0.69532,0.67383 -0.23744,0.19322 -0.49233,0.35351 -0.79882,0.35351 -0.30496,0 -0.55576,-0.16143 -0.78711,-0.35546 -0.23102,-0.19376 -0.45211,-0.43631 -0.67188,-0.67579 -0.58171,-0.62948 -1.18165,-1.25586 -1.90625,-1.25585 z" />
    <path
       style="opacity:1;fill:#00807e;fill-opacity:1;stroke:#000000;stroke-width:0.5;stroke-miterlimit:4;stroke-dasharray:none;stroke-dashoffset:0;stroke-opacity:1"
       d="m 131.44614,622.90139 c -0.66088,-0.21136 -1.52369,-0.79503 -2.51702,-1.70272 -0.63212,-0.57762 -0.74385,-0.73632 -0.74353,-1.05614 2.6e-4,-0.26374 0.17957,-0.5708 0.33333,-0.5708 0.0676,0 0.34258,0.21709 0.67969,0.53655 1.10175,1.04404 2.08144,1.67509 2.67726,1.7245 0.43743,0.0363 0.70772,-0.14161 1.61175,-1.06071 0.47664,-0.48459 0.89707,-0.85888 1.0993,-0.97866 0.29088,-0.17229 0.37106,-0.19397 0.71758,-0.19397 0.5964,0 0.79233,0.1226 1.85871,1.16303 0.94402,0.92104 1.17075,1.08143 1.52875,1.08143 0.37452,0 0.67736,-0.20727 1.57536,-1.0782 0.93692,-0.9087 1.26143,-1.1281 1.74184,-1.17769 0.25687,-0.0265 0.35128,-0.006 0.66812,0.1418 0.30511,0.14277 0.52042,0.32141 1.24359,1.03178 0.91924,0.90295 1.17756,1.0793 1.58286,1.08057 0.3525,10e-4 0.70889,-0.25286 1.52681,-1.08801 0.84875,-0.86663 1.20862,-1.11704 1.67441,-1.16512 0.61189,-0.0631 1.18926,0.28277 2.07609,1.24384 0.87458,0.9478 1.32734,1.16371 1.87963,0.89636 0.16995,-0.0823 0.57837,-0.43308 1.13961,-0.97884 1.24024,-1.20604 1.62888,-1.36808 2.47294,-1.03105 0.76611,0.30591 1.59959,0.90491 2.51376,1.80656 0.52944,0.52219 0.64265,0.74891 0.54463,1.0907 -0.0609,0.21237 -0.20523,0.39109 -0.31582,0.39109 -0.0418,0 -0.35478,-0.264 -0.69544,-0.58667 -1.52103,-1.44072 -2.47331,-1.91787 -3.14436,-1.57552 -0.13145,0.0671 -0.62997,0.50212 -1.10784,0.96681 -1.00916,0.98134 -1.30638,1.16782 -1.85875,1.16617 -0.50946,-0.002 -0.79836,-0.18933 -1.78756,-1.16214 -0.91894,-0.90371 -1.1726,-1.08081 -1.54806,-1.08081 -0.41268,0 -0.60246,0.12807 -1.48519,1.00225 -0.906,0.89723 -1.17861,1.10985 -1.55981,1.21658 -0.64107,0.17949 -1.11967,-0.0715 -2.21663,-1.16263 -0.85465,-0.85008 -1.14679,-1.0562 -1.49697,-1.0562 -0.36894,0 -0.67271,0.20855 -1.56928,1.07742 -0.91943,0.89102 -1.25632,1.12243 -1.71267,1.17648 -0.58169,0.0689 -0.99948,-0.1871 -2.05795,-1.26096 -0.4245,-0.43067 -0.84909,-0.80963 -0.98147,-0.87599 -0.28149,-0.1411 -0.62061,-0.14998 -0.89439,-0.0234 -0.11129,0.0514 -0.57642,0.4629 -1.03362,0.91434 -0.88121,0.8701 -1.1125,1.05553 -1.47697,1.18412 -0.29622,0.10451 -0.55679,0.0973 -0.94269,-0.0261 z"
       id="path824-7-3"
       inkscape:connector-curvature="0" />
    <path
       transform="translate(15.18278,0.93103379)"
       sodipodi:type="inkscape:offset"
       inkscape:radius="-0.27553228"
       inkscape:original="M 120.14453 624.33398 C 119.26976 624.33398 118.61415 625.04907 118.0332 625.67773 C 117.5858 626.16668 117.17327 626.62109 116.7793 626.62109 C 116.07147 626.62109 114.59479 625.39955 113.77344 624.53516 C 113.48631 624.22955 113.06575 624.29059 112.83203 624.66602 C 112.59831 625.04147 112.64451 625.59087 112.93164 625.89648 C 113.17204 626.14968 115.3169 628.37695 116.7793 628.37695 C 117.65406 628.37695 118.30772 627.65989 118.88867 627.03125 C 119.33607 626.54229 119.75055 626.08789 120.14453 626.08789 C 120.53851 626.08789 120.95967 626.55102 121.40039 627.03125 C 121.98134 627.65989 122.63501 628.37695 123.50977 628.37695 C 124.37786 628.37695 125.04632 627.66968 125.64062 627.04102 C 126.10138 626.5608 126.5349 626.09766 126.93555 626.09766 C 127.29614 626.09766 127.70966 626.54218 128.15039 627.01367 C 128.74469 627.65105 129.41933 628.37695 130.30078 628.37695 C 131.17554 628.37695 131.82921 627.65989 132.41016 627.03125 C 132.85756 626.54229 133.27204 626.08789 133.66602 626.08789 C 134.07335 626.08789 134.508 626.55116 134.96875 627.04883 C 135.54303 627.66876 136.19655 628.36719 137.03125 628.36719 C 137.89934 628.36719 138.5678 627.65989 139.16211 627.03125 C 139.62286 626.55102 140.05638 626.08789 140.45703 626.08789 C 141.15818 626.08789 142.59404 627.30162 143.38867 628.16602 C 143.51555 628.29698 143.66282 628.36719 143.81641 628.36719 C 144.01006 628.36719 144.19766 628.26228 144.33789 628.05273 C 144.57161 627.67728 144.53045 627.12788 144.25 626.82227 C 144.01629 626.56033 141.92611 624.33398 140.45703 624.33398 C 139.58894 624.33398 138.92243 625.04125 138.32812 625.66992 C 137.86737 626.15014 137.43191 626.61328 137.03125 626.61328 C 136.67066 626.61328 136.25713 626.1668 135.81641 625.69531 C 135.2221 625.05792 134.54746 624.33398 133.66602 624.33398 C 132.79125 624.33398 132.13759 625.04907 131.55664 625.67773 C 131.10924 626.16668 130.69475 626.62109 130.30078 626.62109 C 129.89344 626.62109 129.45881 626.15786 128.99805 625.66016 C 128.42378 625.04023 127.77025 624.3418 126.93555 624.3418 C 126.06746 624.3418 125.39899 625.04907 124.80469 625.67773 C 124.34393 626.15796 123.91043 626.62109 123.50977 626.62109 C 123.11579 626.62109 122.69463 626.15796 122.25391 625.67773 C 121.67296 625.04907 121.01929 624.33398 120.14453 624.33398 z "
       style="fill:#00807e;fill-opacity:1;stroke-width:50;stroke-miterlimit:4;stroke-dasharray:none"
       id="path6400-6-5-5"
       d="m 120.14453,624.60938 c -0.72461,0 -1.32669,0.62659 -1.9082,1.25585 -0.22314,0.24387 -0.44384,0.48483 -0.67383,0.67774 -0.23032,0.19319 -0.48028,0.35351 -0.7832,0.35351 -0.51242,0 -1.04607,-0.3477 -1.62305,-0.77343 -0.57698,-0.42573 -1.1592,-0.95346 -1.58203,-1.39844 a 0.27555983,0.27555983 0 0 1 -0.002,0 c -0.0913,-0.0972 -0.17188,-0.11871 -0.25196,-0.10742 -0.0801,0.0113 -0.17269,0.0648 -0.2539,0.19531 -0.16138,0.25924 -0.11799,0.69827 0.0664,0.89453 0.11685,0.12306 0.70511,0.73476 1.43555,1.30859 0.73098,0.57427 1.61962,1.08594 2.21094,1.08594 0.72418,0 1.32433,-0.62813 1.90625,-1.25781 0.22327,-0.24402 0.44333,-0.48681 0.67383,-0.67969 0.23082,-0.19316 0.48223,-0.35156 0.78515,-0.35156 0.30496,0 0.55575,0.16143 0.78711,0.35547 0.23102,0.19375 0.45211,0.4363 0.67188,0.67578 0.58191,0.62968 1.18206,1.25781 1.90625,1.25781 0.71843,0 1.33537,-0.62132 1.92968,-1.25 a 0.27555983,0.27555983 0 0 1 0.002,-0.002 c 0.22963,-0.23933 0.45786,-0.48061 0.69531,-0.67383 0.23744,-0.19322 0.49233,-0.35351 0.79883,-0.35351 0.29351,0 0.52974,0.1584 0.7539,0.3457 0.22417,0.1873 0.44189,0.42261 0.66211,0.6582 0.59453,0.63763 1.21904,1.27539 1.94922,1.27539 0.72419,0 1.32434,-0.62813 1.90625,-1.25781 0.22328,-0.24402 0.44333,-0.48681 0.67383,-0.67969 0.23083,-0.19316 0.48224,-0.35156 0.78516,-0.35156 0.30812,0 0.56727,0.15925 0.80664,0.35547 0.23903,0.19594 0.46683,0.44446 0.69726,0.69336 0.57358,0.61917 1.18033,1.23047 1.86133,1.23047 0.71843,0 1.33535,-0.62134 1.92969,-1.25 a 0.27555983,0.27555983 0 0 1 0.002,-0.002 c 0.22963,-0.23933 0.45787,-0.48061 0.69531,-0.67382 0.23745,-0.19322 0.49234,-0.35352 0.79883,-0.35352 0.50956,0 1.03276,0.34523 1.5957,0.76953 0.56071,0.42261 1.12382,0.94794 1.53321,1.39258 0.087,0.0898 0.16084,0.11719 0.23047,0.11719 0.0922,0 0.18855,-0.0443 0.28711,-0.1875 0.16119,-0.26096 0.12131,-0.70257 -0.0566,-0.89649 a 0.27555983,0.27555983 0 0 1 -0.002,-0.002 c -0.10337,-0.11585 -0.68357,-0.7361 -1.40039,-1.31055 -0.71682,-0.57444 -1.59215,-1.08594 -2.1875,-1.08593 -0.71843,0 -1.3332,0.62109 -1.92773,1.25 a 0.27555983,0.27555983 0 0 1 -0.002,0.002 c -0.22976,0.23947 -0.45932,0.48063 -0.69726,0.67383 -0.23795,0.19319 -0.49233,0.35351 -0.79883,0.35351 -0.29402,0 -0.52982,-0.15793 -0.75391,-0.3457 -0.22408,-0.18777 -0.44202,-0.4247 -0.66211,-0.66016 -0.59434,-0.63743 -1.21864,-1.27343 -1.94921,-1.27343 -0.72462,0 -1.32454,0.62637 -1.90625,1.25585 -0.22328,0.24402 -0.44334,0.48681 -0.67383,0.67969 -0.23083,0.19316 -0.48224,0.35156 -0.78516,0.35156 -0.30811,0 -0.56727,-0.15925 -0.80664,-0.35546 -0.23903,-0.19594 -0.46683,-0.44445 -0.69726,-0.69336 h -0.002 c -0.57327,-0.6188 -1.17876,-1.23047 -1.85937,-1.23047 -0.71843,0 -1.33538,0.62132 -1.92969,1.25 a 0.27555983,0.27555983 0 0 1 -0.002,0.002 c -0.22964,0.23934 -0.45787,0.48061 -0.69532,0.67383 -0.23744,0.19322 -0.49233,0.35351 -0.79882,0.35351 -0.30496,0 -0.55576,-0.16143 -0.78711,-0.35546 -0.23102,-0.19376 -0.45211,-0.43631 -0.67188,-0.67579 -0.58171,-0.62948 -1.18165,-1.25586 -1.90625,-1.25585 z" />
    <path
       style="opacity:1;fill:#00807e;fill-opacity:1;stroke:#000000;stroke-width:0.5;stroke-miterlimit:4;stroke-dasharray:none;stroke-dashoffset:0;stroke-opacity:1"
       d="m 131.44418,628.90139 c -0.66088,-0.21136 -1.52369,-0.79503 -2.51702,-1.70272 -0.63212,-0.57762 -0.74385,-0.73632 -0.74353,-1.05614 2.6e-4,-0.26374 0.17957,-0.5708 0.33333,-0.5708 0.0676,0 0.34258,0.21709 0.67969,0.53655 1.10175,1.04404 2.08144,1.67509 2.67726,1.7245 0.43743,0.0363 0.70772,-0.14161 1.61175,-1.06071 0.47664,-0.48459 0.89707,-0.85888 1.0993,-0.97866 0.29088,-0.17229 0.37106,-0.19397 0.71758,-0.19397 0.5964,0 0.79233,0.1226 1.85871,1.16303 0.94402,0.92104 1.17075,1.08143 1.52875,1.08143 0.37452,0 0.67736,-0.20727 1.57536,-1.0782 0.93692,-0.9087 1.26143,-1.1281 1.74184,-1.17769 0.25687,-0.0265 0.35128,-0.006 0.66812,0.1418 0.30511,0.14277 0.52042,0.32141 1.24359,1.03178 0.91924,0.90295 1.17756,1.0793 1.58286,1.08057 0.3525,10e-4 0.70889,-0.25286 1.52681,-1.08801 0.84875,-0.86663 1.20862,-1.11704 1.67441,-1.16512 0.61189,-0.0631 1.18926,0.28277 2.07609,1.24384 0.87458,0.9478 1.32734,1.16371 1.87963,0.89636 0.16995,-0.0823 0.57837,-0.43308 1.13961,-0.97884 1.24024,-1.20604 1.62888,-1.36808 2.47294,-1.03105 0.76611,0.30591 1.59959,0.90491 2.51376,1.80656 0.52944,0.52219 0.64265,0.74891 0.54463,1.0907 -0.0609,0.21237 -0.20523,0.39109 -0.31582,0.39109 -0.0418,0 -0.35478,-0.264 -0.69544,-0.58667 -1.52103,-1.44072 -2.47331,-1.91787 -3.14436,-1.57552 -0.13145,0.0671 -0.62997,0.50212 -1.10784,0.96681 -1.00916,0.98134 -1.30638,1.16782 -1.85875,1.16617 -0.50946,-0.002 -0.79836,-0.18933 -1.78756,-1.16214 -0.91894,-0.90371 -1.1726,-1.08081 -1.54806,-1.08081 -0.41268,0 -0.60246,0.12807 -1.48519,1.00225 -0.906,0.89723 -1.17861,1.10985 -1.55981,1.21658 -0.64107,0.17949 -1.11967,-0.0715 -2.21663,-1.16263 -0.85465,-0.85008 -1.14679,-1.0562 -1.49697,-1.0562 -0.36894,0 -0.67271,0.20855 -1.56928,1.07742 -0.91943,0.89102 -1.25632,1.12243 -1.71267,1.17648 -0.58169,0.0689 -0.99948,-0.1871 -2.05795,-1.26096 -0.4245,-0.43067 -0.84909,-0.80963 -0.98147,-0.87599 -0.28149,-0.1411 -0.62061,-0.14998 -0.89439,-0.0234 -0.11129,0.0514 -0.57642,0.4629 -1.03362,0.91434 -0.88121,0.8701 -1.1125,1.05553 -1.47697,1.18412 -0.29622,0.10451 -0.55679,0.0973 -0.94269,-0.0261 z"
       id="path824-7-3-6"
       inkscape:connector-curvature="0" />
    <path
       transform="translate(15.18082,6.9310338)"
       sodipodi:type="inkscape:offset"
       inkscape:radius="-0.27553228"
       inkscape:original="M 120.14453 624.33398 C 119.26976 624.33398 118.61415 625.04907 118.0332 625.67773 C 117.5858 626.16668 117.17327 626.62109 116.7793 626.62109 C 116.07147 626.62109 114.59479 625.39955 113.77344 624.53516 C 113.48631 624.22955 113.06575 624.29059 112.83203 624.66602 C 112.59831 625.04147 112.64451 625.59087 112.93164 625.89648 C 113.17204 626.14968 115.3169 628.37695 116.7793 628.37695 C 117.65406 628.37695 118.30772 627.65989 118.88867 627.03125 C 119.33607 626.54229 119.75055 626.08789 120.14453 626.08789 C 120.53851 626.08789 120.95967 626.55102 121.40039 627.03125 C 121.98134 627.65989 122.63501 628.37695 123.50977 628.37695 C 124.37786 628.37695 125.04632 627.66968 125.64062 627.04102 C 126.10138 626.5608 126.5349 626.09766 126.93555 626.09766 C 127.29614 626.09766 127.70966 626.54218 128.15039 627.01367 C 128.74469 627.65105 129.41933 628.37695 130.30078 628.37695 C 131.17554 628.37695 131.82921 627.65989 132.41016 627.03125 C 132.85756 626.54229 133.27204 626.08789 133.66602 626.08789 C 134.07335 626.08789 134.508 626.55116 134.96875 627.04883 C 135.54303 627.66876 136.19655 628.36719 137.03125 628.36719 C 137.89934 628.36719 138.5678 627.65989 139.16211 627.03125 C 139.62286 626.55102 140.05638 626.08789 140.45703 626.08789 C 141.15818 626.08789 142.59404 627.30162 143.38867 628.16602 C 143.51555 628.29698 143.66282 628.36719 143.81641 628.36719 C 144.01006 628.36719 144.19766 628.26228 144.33789 628.05273 C 144.57161 627.67728 144.53045 627.12788 144.25 626.82227 C 144.01629 626.56033 141.92611 624.33398 140.45703 624.33398 C 139.58894 624.33398 138.92243 625.04125 138.32812 625.66992 C 137.86737 626.15014 137.43191 626.61328 137.03125 626.61328 C 136.67066 626.61328 136.25713 626.1668 135.81641 625.69531 C 135.2221 625.05792 134.54746 624.33398 133.66602 624.33398 C 132.79125 624.33398 132.13759 625.04907 131.55664 625.67773 C 131.10924 626.16668 130.69475 626.62109 130.30078 626.62109 C 129.89344 626.62109 129.45881 626.15786 128.99805 625.66016 C 128.42378 625.04023 127.77025 624.3418 126.93555 624.3418 C 126.06746 624.3418 125.39899 625.04907 124.80469 625.67773 C 124.34393 626.15796 123.91043 626.62109 123.50977 626.62109 C 123.11579 626.62109 122.69463 626.15796 122.25391 625.67773 C 121.67296 625.04907 121.01929 624.33398 120.14453 624.33398 z "
       style="fill:#00807e;fill-opacity:1;stroke-width:50;stroke-miterlimit:4;stroke-dasharray:none"
       id="path6400-6-5-5-2"
       d="m 120.14453,624.60938 c -0.72461,0 -1.32669,0.62659 -1.9082,1.25585 -0.22314,0.24387 -0.44384,0.48483 -0.67383,0.67774 -0.23032,0.19319 -0.48028,0.35351 -0.7832,0.35351 -0.51242,0 -1.04607,-0.3477 -1.62305,-0.77343 -0.57698,-0.42573 -1.1592,-0.95346 -1.58203,-1.39844 a 0.27555983,0.27555983 0 0 1 -0.002,0 c -0.0913,-0.0972 -0.17188,-0.11871 -0.25196,-0.10742 -0.0801,0.0113 -0.17269,0.0648 -0.2539,0.19531 -0.16138,0.25924 -0.11799,0.69827 0.0664,0.89453 0.11685,0.12306 0.70511,0.73476 1.43555,1.30859 0.73098,0.57427 1.61962,1.08594 2.21094,1.08594 0.72418,0 1.32433,-0.62813 1.90625,-1.25781 0.22327,-0.24402 0.44333,-0.48681 0.67383,-0.67969 0.23082,-0.19316 0.48223,-0.35156 0.78515,-0.35156 0.30496,0 0.55575,0.16143 0.78711,0.35547 0.23102,0.19375 0.45211,0.4363 0.67188,0.67578 0.58191,0.62968 1.18206,1.25781 1.90625,1.25781 0.71843,0 1.33537,-0.62132 1.92968,-1.25 a 0.27555983,0.27555983 0 0 1 0.002,-0.002 c 0.22963,-0.23933 0.45786,-0.48061 0.69531,-0.67383 0.23744,-0.19322 0.49233,-0.35351 0.79883,-0.35351 0.29351,0 0.52974,0.1584 0.7539,0.3457 0.22417,0.1873 0.44189,0.42261 0.66211,0.6582 0.59453,0.63763 1.21904,1.27539 1.94922,1.27539 0.72419,0 1.32434,-0.62813 1.90625,-1.25781 0.22328,-0.24402 0.44333,-0.48681 0.67383,-0.67969 0.23083,-0.19316 0.48224,-0.35156 0.78516,-0.35156 0.30812,0 0.56727,0.15925 0.80664,0.35547 0.23903,0.19594 0.46683,0.44446 0.69726,0.69336 0.57358,0.61917 1.18033,1.23047 1.86133,1.23047 0.71843,0 1.33535,-0.62134 1.92969,-1.25 a 0.27555983,0.27555983 0 0 1 0.002,-0.002 c 0.22963,-0.23933 0.45787,-0.48061 0.69531,-0.67382 0.23745,-0.19322 0.49234,-0.35352 0.79883,-0.35352 0.50956,0 1.03276,0.34523 1.5957,0.76953 0.56071,0.42261 1.12382,0.94794 1.53321,1.39258 0.087,0.0898 0.16084,0.11719 0.23047,0.11719 0.0922,0 0.18855,-0.0443 0.28711,-0.1875 0.16119,-0.26096 0.12131,-0.70257 -0.0566,-0.89649 a 0.27555983,0.27555983 0 0 1 -0.002,-0.002 c -0.10337,-0.11585 -0.68357,-0.7361 -1.40039,-1.31055 -0.71682,-0.57444 -1.59215,-1.08594 -2.1875,-1.08593 -0.71843,0 -1.3332,0.62109 -1.92773,1.25 a 0.27555983,0.27555983 0 0 1 -0.002,0.002 c -0.22976,0.23947 -0.45932,0.48063 -0.69726,0.67383 -0.23795,0.19319 -0.49233,0.35351 -0.79883,0.35351 -0.29402,0 -0.52982,-0.15793 -0.75391,-0.3457 -0.22408,-0.18777 -0.44202,-0.4247 -0.66211,-0.66016 -0.59434,-0.63743 -1.21864,-1.27343 -1.94921,-1.27343 -0.72462,0 -1.32454,0.62637 -1.90625,1.25585 -0.22328,0.24402 -0.44334,0.48681 -0.67383,0.67969 -0.23083,0.19316 -0.48224,0.35156 -0.78516,0.35156 -0.30811,0 -0.56727,-0.15925 -0.80664,-0.35546 -0.23903,-0.19594 -0.46683,-0.44445 -0.69726,-0.69336 h -0.002 c -0.57327,-0.6188 -1.17876,-1.23047 -1.85937,-1.23047 -0.71843,0 -1.33538,0.62132 -1.92969,1.25 a 0.27555983,0.27555983 0 0 1 -0.002,0.002 c -0.22964,0.23934 -0.45787,0.48061 -0.69532,0.67383 -0.23744,0.19322 -0.49233,0.35351 -0.79882,0.35351 -0.30496,0 -0.55576,-0.16143 -0.78711,-0.35546 -0.23102,-0.19376 -0.45211,-0.43631 -0.67188,-0.67579 -0.58171,-0.62948 -1.18165,-1.25586 -1.90625,-1.25585 z" />
    <path
       style="opacity:1;fill:#00807e;fill-opacity:1;stroke:#000000;stroke-width:0.5;stroke-miterlimit:4;stroke-dasharray:none;stroke-dashoffset:0;stroke-opacity:1"
       d="m 131.44222,634.90139 c -0.66088,-0.21136 -1.52369,-0.79503 -2.51702,-1.70272 -0.63212,-0.57762 -0.74385,-0.73632 -0.74353,-1.05614 2.6e-4,-0.26374 0.17957,-0.5708 0.33333,-0.5708 0.0676,0 0.34258,0.21709 0.67969,0.53655 1.10175,1.04404 2.08144,1.67509 2.67726,1.7245 0.43743,0.0363 0.70772,-0.14161 1.61175,-1.06071 0.47664,-0.48459 0.89707,-0.85888 1.0993,-0.97866 0.29088,-0.17229 0.37106,-0.19397 0.71758,-0.19397 0.5964,0 0.79233,0.1226 1.85871,1.16303 0.94402,0.92104 1.17075,1.08143 1.52875,1.08143 0.37452,0 0.67736,-0.20727 1.57536,-1.0782 0.93692,-0.9087 1.26143,-1.1281 1.74184,-1.17769 0.25687,-0.0265 0.35128,-0.006 0.66812,0.1418 0.30511,0.14277 0.52042,0.32141 1.24359,1.03178 0.91924,0.90295 1.17756,1.0793 1.58286,1.08057 0.3525,10e-4 0.70889,-0.25286 1.52681,-1.08801 0.84875,-0.86663 1.20862,-1.11704 1.67441,-1.16512 0.61189,-0.0631 1.18926,0.28277 2.07609,1.24384 0.87458,0.9478 1.32734,1.16371 1.87963,0.89636 0.16995,-0.0823 0.57837,-0.43308 1.13961,-0.97884 1.24024,-1.20604 1.62888,-1.36808 2.47294,-1.03105 0.76611,0.30591 1.59959,0.90491 2.51376,1.80656 0.52944,0.52219 0.64265,0.74891 0.54463,1.0907 -0.0609,0.21237 -0.20523,0.39109 -0.31582,0.39109 -0.0418,0 -0.35478,-0.264 -0.69544,-0.58667 -1.52103,-1.44072 -2.47331,-1.91787 -3.14436,-1.57552 -0.13145,0.0671 -0.62997,0.50212 -1.10784,0.96681 -1.00916,0.98134 -1.30638,1.16782 -1.85875,1.16617 -0.50946,-0.002 -0.79836,-0.18933 -1.78756,-1.16214 -0.91894,-0.90371 -1.1726,-1.08081 -1.54806,-1.08081 -0.41268,0 -0.60246,0.12807 -1.48519,1.00225 -0.906,0.89723 -1.17861,1.10985 -1.55981,1.21658 -0.64107,0.17949 -1.11967,-0.0715 -2.21663,-1.16263 -0.85465,-0.85008 -1.14679,-1.0562 -1.49697,-1.0562 -0.36894,0 -0.67271,0.20855 -1.56928,1.07742 -0.91943,0.89102 -1.25632,1.12243 -1.71267,1.17648 -0.58169,0.0689 -0.99948,-0.1871 -2.05795,-1.26096 -0.4245,-0.43067 -0.84909,-0.80963 -0.98147,-0.87599 -0.28149,-0.1411 -0.62061,-0.14998 -0.89439,-0.0234 -0.11129,0.0514 -0.57642,0.4629 -1.03362,0.91434 -0.88121,0.8701 -1.1125,1.05553 -1.47697,1.18412 -0.29622,0.10451 -0.55679,0.0973 -0.94269,-0.0261 z"
       id="path824-7-3-6-9"
       inkscape:connector-curvature="0" />
  </g>
</svg>
