<?xml version="1.0" encoding="UTF-8" standalone="no"?>
<!-- Created with Inkscape (http://www.inkscape.org/) -->

<svg
   xmlns:dc="http://purl.org/dc/elements/1.1/"
   xmlns:cc="http://creativecommons.org/ns#"
   xmlns:rdf="http://www.w3.org/1999/02/22-rdf-syntax-ns#"
   xmlns:svg="http://www.w3.org/2000/svg"
   xmlns="http://www.w3.org/2000/svg"
   xmlns:sodipodi="http://sodipodi.sourceforge.net/DTD/sodipodi-0.dtd"
   xmlns:inkscape="http://www.inkscape.org/namespaces/inkscape"
   width="100"
   height="64"
   viewBox="0 0 93.750005 59.999998"
   id="svg7944"
   version="1.1"
   inkscape:version="0.92.2 (unknown)"
   sodipodi:docname="Junction_thumb.svg">
  <defs
     id="defs7946" />
  <sodipodi:namedview
     id="base"
     pagecolor="#ffffff"
     bordercolor="#666666"
     borderopacity="1.0"
     inkscape:pageopacity="0.0"
     inkscape:pageshadow="2"
     inkscape:zoom="9.051"
     inkscape:cx="31.831464"
     inkscape:cy="35.080413"
     inkscape:document-units="px"
     inkscape:current-layer="layer1"
     showgrid="false"
     fit-margin-top="0"
     fit-margin-left="0"
     fit-margin-right="0"
     fit-margin-bottom="0"
     inkscape:window-width="1855"
     inkscape:window-height="1056"
     inkscape:window-x="65"
     inkscape:window-y="24"
     inkscape:window-maximized="1"
     units="px" />
  <metadata
     id="metadata7949">
    <rdf:RDF>
      <cc:Work
         rdf:about="">
        <dc:format>image/svg+xml</dc:format>
        <dc:type
           rdf:resource="http://purl.org/dc/dcmitype/StillImage" />
        <dc:title></dc:title>
      </cc:Work>
    </rdf:RDF>
  </metadata>
  <g
     inkscape:label="Capa 1"
     inkscape:groupmode="layer"
     id="layer1"
     transform="translate(-332,-463.21411)">
    <g
       id="g5660"
       transform="matrix(0.11462984,0,0,0.11685551,349.50704,463.38525)">
      <g
         id="g5662">
        <path
           inkscape:connector-curvature="0"
           d="M 512,95.163 416.848,0.011 374.389,42.47 357.651,25.732 291.771,91.612 308.509,108.35 256,160.859 203.491,108.35 220.229,91.612 154.349,25.732 137.612,42.47 95.152,0.011 0,95.163 l 42.459,42.458 -16.738,16.739 65.88,65.88 16.738,-16.738 80.378,80.379 v 74.894 h -23.67 v 93.169 h 23.67 v 60.046 h 134.565 v -60.046 h 23.67 v -93.169 h -23.67 V 283.88 l 80.378,-80.379 16.738,16.738 65.88,-65.88 -16.738,-16.738 z m -469.575,0 52.727,-52.727 21.246,21.246 -52.726,52.728 z M 91.602,177.814 68.147,154.359 154.35,68.156 177.805,91.611 Z M 293.283,481.99 h -74.567 v -30.047 h 74.567 z m 23.671,-60.046 H 195.046 v -33.171 h 121.908 z m -23.671,-150.49 v 87.321 h -74.567 v -87.321 l -89.165,-89.165 52.727,-52.727 73.722,73.721 73.721,-73.721 52.727,52.727 z m 127.115,-93.64 -86.203,-86.203 23.455,-23.455 86.203,86.203 z M 395.601,63.683 416.847,42.437 469.574,95.164 448.328,116.41 Z"
           id="path5664" />
      </g>
    </g>
  </g>
</svg>
