<?xml version="1.0" encoding="UTF-8" standalone="no"?>
<!-- Created with Inkscape (http://www.inkscape.org/) -->

<svg
   xmlns:dc="http://purl.org/dc/elements/1.1/"
   xmlns:cc="http://creativecommons.org/ns#"
   xmlns:rdf="http://www.w3.org/1999/02/22-rdf-syntax-ns#"
   xmlns:svg="http://www.w3.org/2000/svg"
   xmlns="http://www.w3.org/2000/svg"
   xmlns:sodipodi="http://sodipodi.sourceforge.net/DTD/sodipodi-0.dtd"
   xmlns:inkscape="http://www.inkscape.org/namespaces/inkscape"
   width="64"
   height="64"
   viewBox="0 0 60 60"
   id="svg7944"
   version="1.1"
   inkscape:version="0.92.2 (unknown)"
   sodipodi:docname="Junction_color.svg">
  <defs
     id="defs7946" />
  <sodipodi:namedview
     id="base"
     pagecolor="#ffffff"
     bordercolor="#666666"
     borderopacity="1.0"
     inkscape:pageopacity="0.0"
     inkscape:pageshadow="2"
     inkscape:zoom="6.4000235"
     inkscape:cx="44.002416"
     inkscape:cy="56.753096"
     inkscape:document-units="px"
     inkscape:current-layer="layer1"
     showgrid="false"
     fit-margin-top="0"
     fit-margin-left="0"
     fit-margin-right="0"
     fit-margin-bottom="0"
     inkscape:window-width="1855"
     inkscape:window-height="1056"
     inkscape:window-x="65"
     inkscape:window-y="24"
     inkscape:window-maximized="1"
     units="px" />
  <metadata
     id="metadata7949">
    <rdf:RDF>
      <cc:Work
         rdf:about="">
        <dc:format>image/svg+xml</dc:format>
        <dc:type
           rdf:resource="http://purl.org/dc/dcmitype/StillImage" />
        <dc:title></dc:title>
      </cc:Work>
    </rdf:RDF>
  </metadata>
  <g
     inkscape:label="Capa 1"
     inkscape:groupmode="layer"
     id="layer1"
     transform="translate(-332,-463.21413)">
    <g
       id="g5660"
       transform="matrix(0.0625,0,0,0.0625,345.623,476.41986)">
      <g
         id="g5662">
        <path
           sodipodi:type="inkscape:offset"
           inkscape:radius="-3.3145506"
           inkscape:original="M 95.152344 0.01171875 L 0 95.162109 L 42.458984 137.62109 L 25.720703 154.35938 L 91.601562 220.24023 L 108.33984 203.50195 L 188.7168 283.88086 L 188.7168 358.77539 L 165.04688 358.77539 L 165.04688 451.94336 L 188.7168 451.94336 L 188.7168 511.99023 L 323.28125 511.99023 L 323.28125 451.94336 L 346.95117 451.94336 L 346.95117 358.77539 L 323.28125 358.77539 L 323.28125 283.88086 L 403.66016 203.50195 L 420.39844 220.23828 L 486.27734 154.35938 L 469.53906 137.62109 L 512 95.162109 L 416.84766 0.01171875 L 374.38867 42.470703 L 357.65039 25.732422 L 291.77148 91.611328 L 308.50977 108.34961 L 256 160.85938 L 203.49023 108.34961 L 220.22852 91.611328 L 154.34961 25.732422 L 137.61133 42.470703 L 95.152344 0.01171875 z M 95.152344 42.435547 L 116.39844 63.681641 L 63.671875 116.41016 L 42.425781 95.162109 L 95.152344 42.435547 z M 416.84766 42.4375 L 469.57422 95.164062 L 448.32812 116.41016 L 395.60156 63.683594 L 416.84766 42.4375 z M 154.34961 68.15625 L 177.80469 91.611328 L 91.601562 177.81445 L 68.146484 154.35938 L 154.34961 68.15625 z M 357.65039 68.15625 L 443.85352 154.35938 L 420.39844 177.81445 L 334.19531 91.611328 L 357.65039 68.15625 z M 182.27734 129.5625 L 256 203.2832 L 329.7207 129.5625 L 382.44727 182.28906 L 293.2832 271.45312 L 293.2832 358.77539 L 218.7168 358.77539 L 218.7168 271.45312 L 129.55078 182.28906 L 182.27734 129.5625 z M 195.04688 388.77344 L 316.95312 388.77344 L 316.95312 421.94336 L 195.04688 421.94336 L 195.04688 388.77344 z M 218.7168 451.94336 L 293.2832 451.94336 L 293.2832 481.99023 L 218.7168 481.99023 L 218.7168 451.94336 z "
           id="path5664"
           d="M 95.152344,4.6992188 4.6875,95.162109 44.802734,135.27734 a 3.3148821,3.3148821 0 0 1 0,4.6875 l -14.394531,14.39454 61.193359,61.19335 14.394528,-14.39453 a 3.3148821,3.3148821 0 0 1 4.6875,0 l 80.37696,80.37891 a 3.3148821,3.3148821 0 0 1 0.9707,2.34375 v 74.89453 a 3.3148821,3.3148821 0 0 1 -3.31445,3.31445 h -20.35547 v 86.53907 h 20.35547 a 3.3148821,3.3148821 0 0 1 3.31445,3.31445 v 56.73242 H 319.9668 v -56.73242 a 3.3148821,3.3148821 0 0 1 3.31445,-3.31445 h 20.35547 v -86.53907 h -20.35547 a 3.3148821,3.3148821 0 0 1 -3.31445,-3.31445 v -74.89453 a 3.3148821,3.3148821 0 0 1 0.9707,-2.34375 l 80.37891,-80.37891 a 3.3148821,3.3148821 0 0 1 4.6875,0 l 14.39453,14.39258 61.1914,-61.1914 -14.39453,-14.39454 a 3.3148821,3.3148821 0 0 1 0,-4.6875 L 507.3125,95.162109 416.84766,4.6992188 376.73242,44.814453 a 3.3148821,3.3148821 0 0 1 -4.6875,0 l -14.39453,-14.394531 -61.19141,61.191406 14.39454,14.394532 a 3.3148821,3.3148821 0 0 1 0,4.6875 l -52.50977,52.50976 a 3.3148821,3.3148821 0 0 1 -4.6875,0 l -52.50977,-52.50976 a 3.3148821,3.3148821 0 0 1 0,-4.6875 L 215.54102,91.611328 154.34961,30.419922 139.95508,44.814453 a 3.3148821,3.3148821 0 0 1 -4.6875,0 z m 0.04883,34.4218752 a 3.3148821,3.3148821 0 0 1 2.294922,0.970703 l 21.246096,21.246094 a 3.3148821,3.3148821 0 0 1 0,4.6875 L 66.015625,118.75391 a 3.3148821,3.3148821 0 0 1 -4.6875,0 L 40.082031,97.505859 a 3.3148821,3.3148821 0 0 1 0,-4.6875 L 92.808594,40.091797 a 3.3148821,3.3148821 0 0 1 2.392578,-0.970703 z m 321.695308,0.002 a 3.3148821,3.3148821 0 0 1 2.29493,0.970703 l 52.72656,52.726562 a 3.3148821,3.3148821 0 0 1 0,4.6875 l -21.24609,21.246098 a 3.3148821,3.3148821 0 0 1 -4.6875,0 L 393.25781,66.027344 a 3.3148821,3.3148821 0 0 1 0,-4.6875 l 21.2461,-21.246094 a 3.3148821,3.3148821 0 0 1 2.39257,-0.970703 z m -262.49804,25.71875 a 3.3148821,3.3148821 0 0 1 2.29492,0.970703 l 23.45508,23.455078 a 3.3148821,3.3148821 0 0 1 0,4.6875 L 93.945312,180.1582 a 3.3148821,3.3148821 0 0 1 -4.6875,0 L 65.802734,156.70312 a 3.3148821,3.3148821 0 0 1 0,-4.6875 L 152.00586,65.8125 a 3.3148821,3.3148821 0 0 1 2.39258,-0.970703 z m 203.30078,0 a 3.3148821,3.3148821 0 0 1 2.29492,0.970703 l 86.20313,86.20312 a 3.3148821,3.3148821 0 0 1 0,4.6875 l -23.45508,23.45508 a 3.3148821,3.3148821 0 0 1 -4.6875,0 L 331.85156,93.955078 a 3.3148821,3.3148821 0 0 1 0,-4.6875 L 355.30664,65.8125 a 3.3148821,3.3148821 0 0 1 2.39258,-0.970703 z M 182.32617,126.24805 a 3.3148821,3.3148821 0 0 1 2.29492,0.9707 L 256,198.5957 327.37695,127.21875 a 3.3148821,3.3148821 0 0 1 4.6875,0 l 52.72657,52.72656 a 3.3148821,3.3148821 0 0 1 0,4.6875 l -88.19336,88.19336 v 85.94922 a 3.3148821,3.3148821 0 0 1 -3.31446,3.31445 h -74.5664 a 3.3148821,3.3148821 0 0 1 -3.31446,-3.31445 v -85.94922 l -88.19531,-88.19336 a 3.3148821,3.3148821 0 0 1 0,-4.6875 l 52.72656,-52.72656 a 3.3148821,3.3148821 0 0 1 2.39258,-0.9707 z m 12.72071,259.21093 h 121.90624 a 3.3148821,3.3148821 0 0 1 3.31446,3.31446 v 33.16992 a 3.3148821,3.3148821 0 0 1 -3.31446,3.31445 H 195.04688 a 3.3148821,3.3148821 0 0 1 -3.31446,-3.31445 v -33.16992 a 3.3148821,3.3148821 0 0 1 3.31446,-3.31446 z m 23.66992,63.16993 h 74.5664 a 3.3148821,3.3148821 0 0 1 3.31446,3.31445 v 30.04687 a 3.3148821,3.3148821 0 0 1 -3.31446,3.31446 h -74.5664 a 3.3148821,3.3148821 0 0 1 -3.31446,-3.31446 v -30.04687 a 3.3148821,3.3148821 0 0 1 3.31446,-3.31445 z" />
      </g>
    </g>
    <path
       style="opacity:0.1;fill:#000000;fill-opacity:1;stroke:#000000;stroke-width:0.21972576;stroke-miterlimit:4;stroke-dasharray:none;stroke-dashoffset:0;stroke-opacity:1"
       d="m 359.14914,506.59345 c -0.0201,-0.0524 -0.0273,-0.53853 -0.016,-1.08032 l 0.0205,-0.98507 h 2.4536 2.45361 l 0.0203,1.08032 0.0203,1.08032 h -2.45786 c -1.94958,0 -2.46542,-0.0197 -2.49441,-0.0952 z"
       id="path12"
       inkscape:connector-curvature="0" />
    <path
       style="opacity:0.1;fill:#000000;fill-opacity:1;stroke:#000000;stroke-width:0.21972576;stroke-miterlimit:4;stroke-dasharray:none;stroke-dashoffset:0;stroke-opacity:1"
       d="m 357.68448,502.85859 c -0.02,-0.0521 -0.0272,-0.5877 -0.016,-1.19018 l 0.0204,-1.09541 3.87353,-0.019 c 2.79964,-0.0137 3.90122,0.004 3.97338,0.0639 0.0755,0.0626 0.0998,0.32956 0.0998,1.0933 0,0.55573 -0.02,1.06256 -0.0444,1.12628 -0.0398,0.10364 -0.45687,0.11585 -3.95737,0.11585 -3.13361,0 -3.92014,-0.0189 -3.94927,-0.0948 z"
       id="path14"
       inkscape:connector-curvature="0" />
    <path
       style="opacity:0.1;fill:#000000;fill-opacity:1;stroke:#000000;stroke-width:0.21972576;stroke-miterlimit:4;stroke-dasharray:none;stroke-dashoffset:0;stroke-opacity:1"
       d="m 359.16587,498.94947 c -0.0269,-0.0269 -0.0488,-1.27121 -0.0488,-2.76524 v -2.71642 l -2.7832,-2.78247 c -1.53075,-1.53036 -2.78319,-2.81585 -2.78319,-2.85666 0,-0.0962 3.38375,-3.47876 3.48001,-3.47876 0.0402,0 1.07796,1.00524 2.3061,2.23387 1.22814,1.22864 2.26634,2.23388 2.30712,2.23388 0.0408,0 1.07898,-1.00524 2.30712,-2.23388 1.22814,-1.22863 2.26641,-2.23387 2.30727,-2.23387 0.1194,0 3.4056,3.32259 3.4056,3.44331 0,0.0603 -1.25244,1.36175 -2.78319,2.89211 l -2.7832,2.78247 v 2.76525 2.76524 h -2.44139 c -1.34277,0 -2.46337,-0.022 -2.49023,-0.0488 z"
       id="path16"
       inkscape:connector-curvature="0" />
    <path
       style="opacity:0.1;fill:#000000;fill-opacity:1;stroke:#000000;stroke-width:0.21972576;stroke-miterlimit:4;stroke-dasharray:none;stroke-dashoffset:0;stroke-opacity:1"
       d="m 350.52818,486.9305 c -0.43236,-0.4337 -0.7861,-0.82114 -0.7861,-0.86096 0,-0.0958 5.43558,-5.5282 5.53137,-5.5282 0.0408,0 0.43576,0.36274 0.87774,0.8061 l 0.80361,0.80611 -2.78203,2.78275 c -1.53011,1.53051 -2.79923,2.78274 -2.82026,2.78274 -0.021,0 -0.39197,-0.35484 -0.82433,-0.78854 z"
       id="path18"
       inkscape:connector-curvature="0" />
    <path
       style="opacity:0.1;fill:#000000;fill-opacity:1;stroke:#000000;stroke-width:0.21972576;stroke-miterlimit:4;stroke-dasharray:none;stroke-dashoffset:0;stroke-opacity:1"
       d="m 348.8068,483.15836 c -0.37182,-0.37338 -0.67604,-0.72795 -0.67604,-0.78795 0,-0.14347 3.30076,-3.4404 3.4444,-3.4404 0.14312,0 1.46281,1.3233 1.46281,1.46682 0,0.14347 -3.30077,3.44039 -3.44441,3.44039 -0.0609,0 -0.41494,-0.30549 -0.78676,-0.67886 z"
       id="path20"
       inkscape:connector-curvature="0" />
    <path
       style="opacity:0.1;fill:#000000;fill-opacity:1;stroke:#000000;stroke-width:0.21972576;stroke-miterlimit:4;stroke-dasharray:none;stroke-dashoffset:0;stroke-opacity:1"
       d="m 369.09589,484.99042 c -1.50034,-1.50074 -2.7279,-2.77734 -2.7279,-2.83687 0,-0.14343 1.46712,-1.61221 1.61038,-1.61221 0.12167,0 5.56733,5.41049 5.56733,5.53137 0,0.0956 -1.55375,1.64633 -1.6495,1.64633 -0.0398,0 -1.29997,-1.22788 -2.80031,-2.72862 z"
       id="path22"
       inkscape:connector-curvature="0" />
    <path
       style="opacity:0.1;fill:#000000;fill-opacity:1;stroke:#000000;stroke-width:0.21972576;stroke-miterlimit:4;stroke-dasharray:none;stroke-dashoffset:0;stroke-opacity:1"
       d="m 371.91301,482.17097 c -0.91513,-0.91644 -1.68675,-1.69204 -1.71473,-1.72356 -0.0566,-0.0638 1.36012,-1.5174 1.47896,-1.5174 0.0414,0 0.84903,0.77436 1.79483,1.72079 l 1.71962,1.72079 -0.73007,0.73282 c -0.40154,0.40305 -0.76487,0.73281 -0.80741,0.73281 -0.0425,0 -0.82608,-0.74981 -1.7412,-1.66625 z"
       id="path24"
       inkscape:connector-curvature="0" />
  </g>
</svg>
