<?xml version="1.0" encoding="UTF-8" standalone="no"?>
<!-- Created with Inkscape (http://www.inkscape.org/) -->

<svg
   xmlns:dc="http://purl.org/dc/elements/1.1/"
   xmlns:cc="http://creativecommons.org/ns#"
   xmlns:rdf="http://www.w3.org/1999/02/22-rdf-syntax-ns#"
   xmlns:svg="http://www.w3.org/2000/svg"
   xmlns="http://www.w3.org/2000/svg"
   xmlns:sodipodi="http://sodipodi.sourceforge.net/DTD/sodipodi-0.dtd"
   xmlns:inkscape="http://www.inkscape.org/namespaces/inkscape"
   width="64"
   height="64"
   viewBox="0 0 64 63.999996"
   id="svg9914"
   version="1.1"
   inkscape:version="0.92.2 (unknown)"
   sodipodi:docname="tank_color.svg">
  <defs
     id="defs9916" />
  <sodipodi:namedview
     id="base"
     pagecolor="#ffffff"
     bordercolor="#666666"
     borderopacity="1.0"
     inkscape:pageopacity="0.0"
     inkscape:pageshadow="2"
     inkscape:zoom="5.3411229"
     inkscape:cx="5.7259657"
     inkscape:cy="26.361497"
     inkscape:document-units="px"
     inkscape:current-layer="layer1"
     showgrid="false"
     fit-margin-top="0"
     fit-margin-left="0"
     fit-margin-right="0"
     fit-margin-bottom="0"
     units="px"
     inkscape:window-width="1855"
     inkscape:window-height="1056"
     inkscape:window-x="65"
     inkscape:window-y="24"
     inkscape:window-maximized="1" />
  <metadata
     id="metadata9919">
    <rdf:RDF>
      <cc:Work
         rdf:about="">
        <dc:format>image/svg+xml</dc:format>
        <dc:type
           rdf:resource="http://purl.org/dc/dcmitype/StillImage" />
        <dc:title></dc:title>
      </cc:Work>
    </rdf:RDF>
  </metadata>
  <g
     inkscape:label="Capa 1"
     inkscape:groupmode="layer"
     id="layer1"
     transform="translate(-683.70696,-587.3894)">
    <g
       id="g6105"
       transform="matrix(0.07810213,0,0,0.07810213,695.2362,593.42736)">
      <g
         id="g6059">
        <g
           id="g6061">
          <g
             id="g6063">
            <path
               sodipodi:type="inkscape:offset"
               inkscape:radius="-5.0852356"
               inkscape:original="M 331 102.2793 L 331 132.2793 L 61 132.2793 L 61 162.2793 L 91 162.2793 L 91 482 L 61 482 L 61 512 L 451 512 L 451 482 L 421 482 L 421 162.2793 L 451 162.2793 L 451 132.2793 L 361 132.2793 L 361 102.2793 L 331 102.2793 z M 121 162.2793 L 391 162.2793 L 391 202.2793 L 121 202.2793 L 121 162.2793 z M 121 232.2793 L 391 232.2793 L 391 412 L 121 412 L 121 232.2793 z M 121 442 L 391 442 L 391 482 L 121 482 L 121 442 z "
               id="path6065"
               d="M 336.08594,107.36523 V 132.2793 A 5.0857441,5.0857441 0 0 1 331,137.36523 H 66.085938 v 19.82813 H 91 a 5.0857441,5.0857441 0 0 1 5.085938,5.08594 V 482 A 5.0857441,5.0857441 0 0 1 91,487.08594 H 66.085938 v 19.82812 H 445.91406 V 487.08594 H 421 A 5.0857441,5.0857441 0 0 1 415.91406,482 V 162.2793 A 5.0857441,5.0857441 0 0 1 421,157.19336 h 24.91406 V 137.36523 H 361 a 5.0857441,5.0857441 0 0 1 -5.08594,-5.08593 V 107.36523 Z M 121,157.19336 h 270 a 5.0857441,5.0857441 0 0 1 5.08594,5.08594 v 40 A 5.0857441,5.0857441 0 0 1 391,207.36523 H 121 a 5.0857441,5.0857441 0 0 1 -5.08594,-5.08593 v -40 A 5.0857441,5.0857441 0 0 1 121,157.19336 Z m 0,70 h 270 a 5.0857441,5.0857441 0 0 1 5.08594,5.08594 V 412 A 5.0857441,5.0857441 0 0 1 391,417.08594 H 121 A 5.0857441,5.0857441 0 0 1 115.91406,412 V 232.2793 A 5.0857441,5.0857441 0 0 1 121,227.19336 Z m 0,209.7207 H 391 A 5.0857441,5.0857441 0 0 1 396.08594,442 v 40 A 5.0857441,5.0857441 0 0 1 391,487.08594 H 121 A 5.0857441,5.0857441 0 0 1 115.91406,482 V 442 A 5.0857441,5.0857441 0 0 1 121,436.91406 Z" />
            <path
               sodipodi:type="inkscape:offset"
               inkscape:radius="-6.6655555"
               inkscape:original="M 247.18945 239.37695 L 205.18164 299.38867 C 195.90459 312.64164 191 328.19895 191 344.37695 C 191 380.21795 220.159 409.37695 256 409.37695 C 291.841 409.37695 321 380.21795 321 344.37695 C 321 328.19895 316.09536 312.64263 306.81836 299.39062 L 264.81055 239.37695 L 247.18945 239.37695 z M 256 279.10547 L 282.24219 316.59375 C 287.97119 324.77775 291 334.38595 291 344.37695 C 291 363.67595 275.299 379.37695 256 379.37695 C 236.701 379.37695 221 363.67595 221 344.37695 C 221 334.38595 224.02781 324.77875 229.75781 316.59375 L 256 279.10547 z "
               id="path6067"
               d="m 250.66016,246.04297 -40.01758,57.16797 c -8.50464,12.14951 -12.97656,26.33518 -12.97656,41.16601 0,32.22576 26.10822,58.33399 58.33398,58.33399 32.22576,0 58.33398,-26.10823 58.33398,-58.33399 0,-14.83081 -4.47203,-29.01551 -12.97656,-41.16406 l -40.01758,-57.16992 z m 5.60742,26.40234 a 6.666222,6.666222 0 0 1 5.19336,2.83789 l 26.24218,37.48828 c 6.50163,9.28771 9.9629,20.26735 9.9629,31.60547 0,22.91425 -18.75178,41.66602 -41.66602,41.66602 -22.91424,0 -41.66602,-18.75177 -41.66602,-41.66602 0,-11.33768 3.46023,-22.31676 9.9629,-31.60547 l 26.24218,-37.48828 a 6.666222,6.666222 0 0 1 5.72852,-2.83789 z" />
          </g>
        </g>
      </g>
      <g
         id="g6069" />
      <g
         id="g6071" />
      <g
         id="g6073" />
      <g
         id="g6075" />
      <g
         id="g6077" />
      <g
         id="g6079" />
      <g
         id="g6081" />
      <g
         id="g6083" />
      <g
         id="g6085" />
      <g
         id="g6087" />
      <g
         id="g6089" />
      <g
         id="g6091" />
      <g
         id="g6093" />
      <g
         id="g6095" />
      <g
         id="g6097" />
    </g>
    <path
       style="opacity:1;fill:#00807e;fill-opacity:1;stroke:#000000;stroke-width:0.19858374;stroke-miterlimit:4;stroke-dasharray:none;stroke-dashoffset:0;stroke-opacity:1"
       d="m 704.44933,625.85898 c -0.0933,-0.0933 -0.10402,-0.84434 -0.10402,-7.27668 0,-6.43234 0.0107,-7.18339 0.10402,-7.27668 0.0937,-0.0937 1.16278,-0.10402 10.77946,-0.10402 10.25812,0 10.67972,0.005 10.78499,0.12106 0.10052,0.11107 0.10955,0.71118 0.10955,7.27667 0,6.41686 -0.0107,7.16637 -0.10402,7.25965 -0.0937,0.0937 -1.16328,0.10402 -10.78499,0.10402 -9.62171,0 -10.69128,-0.0103 -10.78499,-0.10402 z m 11.73106,-1.06028 c 2.33236,-0.4808 3.8932,-2.68806 3.59425,-5.0828 -0.0913,-0.7311 -0.33589,-1.53656 -0.62175,-2.04719 -0.11642,-0.20796 -0.95167,-1.43666 -1.8561,-2.73045 l -1.64444,-2.35234 -0.43537,0.0194 -0.43538,0.0194 -1.64732,2.34991 c -0.90603,1.29245 -1.76499,2.58821 -1.9088,2.87946 -0.41,0.83034 -0.54493,1.43499 -0.54655,2.4492 -0.001,0.75369 0.0203,0.92628 0.17298,1.39009 0.40631,1.23403 1.22551,2.18385 2.35631,2.73206 0.94425,0.45777 1.94956,0.584 2.97217,0.3732 z"
       id="path837"
       inkscape:connector-curvature="0" />
    <path
       style="opacity:1;fill:#00807e;fill-opacity:1;stroke:#000000;stroke-width:0.19858374;stroke-miterlimit:4;stroke-dasharray:none;stroke-dashoffset:0;stroke-opacity:1"
       d="m 704.48328,609.49709 c -0.13892,-0.11374 -0.14115,-0.1476 -0.12317,-1.86807 l 0.0183,-1.75224 0.16549,-0.0837 c 0.24292,-0.12284 21.13792,-0.12284 21.38085,0 l 0.16548,0.0837 0.0183,1.75224 c 0.018,1.72047 0.0157,1.75433 -0.12317,1.86807 -0.13344,0.10926 -0.74472,0.11584 -10.75104,0.11584 -10.00632,0 -10.61761,-0.007 -10.75105,-0.11584 z"
       id="path839"
       inkscape:connector-curvature="0" />
    <path
       style="opacity:1;fill:#618b49;fill-opacity:1;stroke:#000000;stroke-width:0.19858374;stroke-miterlimit:4;stroke-dasharray:none;stroke-dashoffset:0;stroke-opacity:1"
       d="m 704.48328,631.34131 c -0.13892,-0.11375 -0.14115,-0.1476 -0.12317,-1.86808 l 0.0183,-1.75224 0.16549,-0.0837 c 0.24292,-0.12285 21.13792,-0.12285 21.38085,0 l 0.16548,0.0837 0.0183,1.75224 c 0.018,1.72048 0.0157,1.75433 -0.12317,1.86808 -0.13344,0.10925 -0.74472,0.11584 -10.75104,0.11584 -10.00632,0 -10.61761,-0.007 -10.75105,-0.11584 z"
       id="path841"
       inkscape:connector-curvature="0" />
    <path
       style="opacity:1;fill:#618b49;fill-opacity:1;stroke:#000000;stroke-width:0.19858374;stroke-miterlimit:4;stroke-dasharray:none;stroke-dashoffset:0;stroke-opacity:1"
       d="m 704.82954,625.78314 -0.27702,-0.0259 -0.0409,-0.34392 c -0.0615,-0.51668 -0.009,-13.92733 0.0544,-13.99107 0.0721,-0.0721 21.2646,-0.0721 21.33672,2e-5 0.0721,0.0721 0.0721,14.24796 10e-6,14.32009 -0.0534,0.0534 -20.51497,0.093 -21.07315,0.0408 z m 11.58059,-0.91686 c 1.61912,-0.41956 2.89133,-1.68553 3.35659,-3.34013 0.20352,-0.7238 0.19339,-1.74047 -0.0259,-2.60142 -0.28032,-1.10044 -0.29174,-1.11958 -2.90077,-4.86021 l -1.11961,-1.60522 -0.37544,0.007 c -0.2065,0.004 -0.44238,0.026 -0.52418,0.0496 -0.0991,0.0287 -0.61125,0.70585 -1.53446,2.02889 -2.55625,3.66331 -2.717,4.00794 -2.71825,5.82776 -5.9e-4,0.87226 0.1,1.30971 0.47872,2.08249 0.22344,0.45589 0.3894,0.6763 0.87465,1.16161 0.48989,0.48997 0.70126,0.64847 1.16153,0.87104 0.885,0.42795 1.49404,0.55867 2.37852,0.51051 0.30699,-0.0167 0.73386,-0.0759 0.94861,-0.13157 z"
       id="path843"
       inkscape:connector-curvature="0" />
    <path
       style="opacity:1;fill:#618b49;fill-opacity:1;stroke:#000000;stroke-width:0.19858374;stroke-miterlimit:4;stroke-dasharray:none;stroke-dashoffset:0;stroke-opacity:1"
       d="m 704.80868,609.42096 -0.29788,-0.0397 v -1.72106 -1.72105 l 0.79433,-0.0407 c 1.03562,-0.053 18.82276,-0.053 19.85838,0 l 0.79433,0.0407 v 1.72105 1.72106 l -0.33097,0.0439 c -0.41134,0.0545 -20.40813,0.0505 -20.81819,-0.004 z"
       id="path845"
       inkscape:connector-curvature="0" />
    <path
       style="opacity:1;fill:#ffdd55;fill-opacity:1;stroke:#000000;stroke-width:0.19858374;stroke-miterlimit:4;stroke-dasharray:none;stroke-dashoffset:0;stroke-opacity:1"
       d="m 714.25874,623.38526 c -0.91408,-0.29221 -1.72783,-1.07648 -2.05294,-1.97858 -0.16938,-0.46998 -0.22409,-1.33894 -0.11851,-1.88236 0.0441,-0.22685 0.16404,-0.6134 0.26659,-0.85899 0.25486,-0.6103 2.48868,-3.80171 2.71496,-3.87879 0.34025,-0.1159 0.45916,0.006 1.58867,1.62283 1.3346,1.91094 1.29955,1.85389 1.53827,2.5039 0.59164,1.61101 0.0785,3.26956 -1.28144,4.14226 -0.70895,0.45493 -1.82893,0.59399 -2.6556,0.32973 z"
       id="path851"
       inkscape:connector-curvature="0" />
  </g>
</svg>
