<?xml version="1.0" encoding="UTF-8" standalone="no"?>
<!-- Created with Inkscape (http://www.inkscape.org/) -->

<svg
   xmlns:dc="http://purl.org/dc/elements/1.1/"
   xmlns:cc="http://creativecommons.org/ns#"
   xmlns:rdf="http://www.w3.org/1999/02/22-rdf-syntax-ns#"
   xmlns:svg="http://www.w3.org/2000/svg"
   xmlns="http://www.w3.org/2000/svg"
   xmlns:sodipodi="http://sodipodi.sourceforge.net/DTD/sodipodi-0.dtd"
   xmlns:inkscape="http://www.inkscape.org/namespaces/inkscape"
   width="64"
   height="64"
   viewBox="0 0 64.000001 64.000004"
   id="svg10601"
   version="1.1"
   inkscape:version="0.92.2 (unknown)"
   sodipodi:docname="tube_color.svg">
  <defs
     id="defs10603" />
  <sodipodi:namedview
     id="base"
     pagecolor="#ffffff"
     bordercolor="#666666"
     borderopacity="1.0"
     inkscape:pageopacity="0.0"
     inkscape:pageshadow="2"
     inkscape:zoom="6.8795595"
     inkscape:cx="-9.7416799"
     inkscape:cy="34.926216"
     inkscape:document-units="px"
     inkscape:current-layer="layer1"
     showgrid="false"
     fit-margin-top="0"
     fit-margin-left="0"
     fit-margin-right="0"
     fit-margin-bottom="0"
     units="px"
     inkscape:window-width="1855"
     inkscape:window-height="1056"
     inkscape:window-x="65"
     inkscape:window-y="24"
     inkscape:window-maximized="1" />
  <metadata
     id="metadata10606">
    <rdf:RDF>
      <cc:Work
         rdf:about="">
        <dc:format>image/svg+xml</dc:format>
        <dc:type
           rdf:resource="http://purl.org/dc/dcmitype/StillImage" />
        <dc:title></dc:title>
      </cc:Work>
    </rdf:RDF>
  </metadata>
  <g
     inkscape:label="Capa 1"
     inkscape:groupmode="layer"
     id="layer1"
     transform="translate(-174.00009,-305.18997)">
    <g
       id="g5884"
       transform="matrix(0.10050254,0.10050254,-0.10050254,0.10050254,110.19221,347.63424)"
       style="fill:#000000;fill-opacity:1;stroke:none;stroke-width:5.3183322;stroke-miterlimit:4;stroke-dasharray:none;stroke-opacity:1">
      <g
         id="g5842"
         style="fill:#000000;fill-opacity:1;stroke:none;stroke-width:5.3183322;stroke-miterlimit:4;stroke-dasharray:none;stroke-opacity:1">
        <g
           id="g5844"
           style="fill:#000000;fill-opacity:1;stroke:none;stroke-width:5.3183322;stroke-miterlimit:4;stroke-dasharray:none;stroke-opacity:1">
          <path
             sodipodi:type="inkscape:offset"
             inkscape:radius="-2.8926249"
             inkscape:original="M 517.97461 -671.16797 L 493.65234 -646.84375 L 484.0625 -656.43359 L 446.32227 -618.69336 L 455.91016 -609.10352 L 341.23828 -494.43164 L 331.65039 -504.01953 L 293.91016 -466.2793 L 303.49805 -456.69141 L 279.17578 -432.36719 L 333.68555 -377.85742 L 358.00781 -402.18164 L 367.5957 -392.59375 L 405.33789 -430.33398 L 395.74805 -439.92188 L 510.41992 -554.59375 L 520.00781 -545.00586 L 557.75 -582.74609 L 548.16016 -592.33398 L 572.48438 -616.6582 L 517.97461 -671.16797 z M 517.97461 -646.86328 L 548.17969 -616.6582 L 536.00781 -604.48633 L 505.80273 -634.69141 L 517.97461 -646.86328 z M 484.0625 -632.12891 L 533.44531 -582.74609 L 520.00781 -569.31055 L 470.625 -618.69336 L 484.0625 -632.12891 z M 468.0625 -596.95117 L 498.26758 -566.74609 L 383.5957 -452.07422 L 353.39062 -482.28125 L 468.0625 -596.95117 z M 331.65039 -479.7168 L 381.0332 -430.33398 L 367.5957 -416.89648 L 318.21289 -466.28125 L 331.65039 -479.7168 z M 315.65039 -444.53906 L 345.85547 -414.33398 L 333.68555 -402.16211 L 303.47852 -432.36719 L 315.65039 -444.53906 z "
             style="fill:#000000;fill-opacity:1;stroke:none;stroke-width:5.3183322;stroke-miterlimit:4;stroke-dasharray:none;stroke-opacity:1"
             id="path5846"
             d="m 517.97461,-667.07812 -22.27734,22.27929 a 2.8929141,2.8929141 0 0 1 -4.08985,0 l -7.54492,-7.54492 -33.65039,33.65039 7.54297,7.54492 a 2.8929141,2.8929141 0 0 1 0,4.08985 L 343.2832,-492.38672 a 2.8929141,2.8929141 0 0 1 -4.08984,0 l -7.54297,-7.54297 L 298,-466.2793 l 7.54297,7.54297 a 2.8929141,2.8929141 0 0 1 0,4.08985 l -22.27735,22.27929 50.41993,50.41992 22.27734,-22.27929 a 2.8929141,2.8929141 0 0 1 4.08984,0 l 7.54297,7.54297 33.65235,-33.65039 -7.54493,-7.54297 a 2.8929141,2.8929141 0 0 1 0,-4.08985 L 508.375,-556.63867 a 2.8929141,2.8929141 0 0 1 4.08984,0 l 7.54297,7.54297 33.65235,-33.65039 -7.54493,-7.54297 a 2.8929141,2.8929141 0 0 1 0,-4.08985 l 22.2793,-22.27929 z m 0.043,17.32226 a 2.8929141,2.8929141 0 0 1 2.00195,0.84766 l 30.20508,30.20508 a 2.8929141,2.8929141 0 0 1 0,4.08984 l -12.17188,12.17187 a 2.8929141,2.8929141 0 0 1 -4.08984,0 l -30.20508,-30.20507 a 2.8929141,2.8929141 0 0 1 0,-4.08985 l 12.17188,-12.17187 a 2.8929141,2.8929141 0 0 1 2.08789,-0.84766 z m -33.91211,14.73438 a 2.8929141,2.8929141 0 0 1 2.00195,0.84765 l 49.38281,49.38281 a 2.8929141,2.8929141 0 0 1 0,4.08985 l -13.4375,13.43555 a 2.8929141,2.8929141 0 0 1 -4.08984,0 l -49.38281,-49.38282 a 2.8929141,2.8929141 0 0 1 0,-4.08984 l 13.4375,-13.43555 a 2.8929141,2.8929141 0 0 1 2.08789,-0.84765 z m -16,35.17773 a 2.8929141,2.8929141 0 0 1 2.00195,0.84766 l 30.20508,30.20507 a 2.8929141,2.8929141 0 0 1 0,4.08985 L 385.64062,-450.0293 a 2.8929141,2.8929141 0 0 1 -4.08984,0 l -30.20508,-30.20703 a 2.8929141,2.8929141 0 0 1 0,-4.08984 l 114.67188,-114.66992 a 2.8929141,2.8929141 0 0 1 2.08789,-0.84766 z m -136.41211,117.23437 a 2.8929141,2.8929141 0 0 1 2.00195,0.84766 l 49.38281,49.38281 a 2.8929141,2.8929141 0 0 1 0,4.08985 l -13.4375,13.4375 a 2.8929141,2.8929141 0 0 1 -4.08984,0 l -49.38281,-49.38477 a 2.8929141,2.8929141 0 0 1 0,-4.08984 l 13.4375,-13.43555 a 2.8929141,2.8929141 0 0 1 2.08789,-0.84766 z m -16,35.17774 a 2.8929141,2.8929141 0 0 1 2.00195,0.84766 l 30.20508,30.20507 a 2.8929141,2.8929141 0 0 1 0,4.08985 l -12.16992,12.17187 a 2.8929141,2.8929141 0 0 1 -4.08985,0 l -30.20703,-30.20508 a 2.8929141,2.8929141 0 0 1 0,-4.08984 l 12.17188,-12.17187 a 2.8929141,2.8929141 0 0 1 2.08789,-0.84766 z" />
        </g>
      </g>
      <g
         id="g5848"
         style="fill:#000000;fill-opacity:1;stroke:none;stroke-width:5.3183322;stroke-miterlimit:4;stroke-dasharray:none;stroke-opacity:1" />
      <g
         id="g5850"
         style="fill:#000000;fill-opacity:1;stroke:none;stroke-width:5.3183322;stroke-miterlimit:4;stroke-dasharray:none;stroke-opacity:1" />
      <g
         id="g5852"
         style="fill:#000000;fill-opacity:1;stroke:none;stroke-width:5.3183322;stroke-miterlimit:4;stroke-dasharray:none;stroke-opacity:1" />
      <g
         id="g5854"
         style="fill:#000000;fill-opacity:1;stroke:none;stroke-width:5.3183322;stroke-miterlimit:4;stroke-dasharray:none;stroke-opacity:1" />
      <g
         id="g5856"
         style="fill:#000000;fill-opacity:1;stroke:none;stroke-width:5.3183322;stroke-miterlimit:4;stroke-dasharray:none;stroke-opacity:1" />
      <g
         id="g5858"
         style="fill:#000000;fill-opacity:1;stroke:none;stroke-width:5.3183322;stroke-miterlimit:4;stroke-dasharray:none;stroke-opacity:1" />
      <g
         id="g5860"
         style="fill:#000000;fill-opacity:1;stroke:none;stroke-width:5.3183322;stroke-miterlimit:4;stroke-dasharray:none;stroke-opacity:1" />
      <g
         id="g5862"
         style="fill:#000000;fill-opacity:1;stroke:none;stroke-width:5.3183322;stroke-miterlimit:4;stroke-dasharray:none;stroke-opacity:1" />
      <g
         id="g5864"
         style="fill:#000000;fill-opacity:1;stroke:none;stroke-width:5.3183322;stroke-miterlimit:4;stroke-dasharray:none;stroke-opacity:1" />
      <g
         id="g5866"
         style="fill:#000000;fill-opacity:1;stroke:none;stroke-width:5.3183322;stroke-miterlimit:4;stroke-dasharray:none;stroke-opacity:1" />
      <g
         id="g5868"
         style="fill:#000000;fill-opacity:1;stroke:none;stroke-width:5.3183322;stroke-miterlimit:4;stroke-dasharray:none;stroke-opacity:1" />
      <g
         id="g5870"
         style="fill:#000000;fill-opacity:1;stroke:none;stroke-width:5.3183322;stroke-miterlimit:4;stroke-dasharray:none;stroke-opacity:1" />
      <g
         id="g5872"
         style="fill:#000000;fill-opacity:1;stroke:none;stroke-width:5.3183322;stroke-miterlimit:4;stroke-dasharray:none;stroke-opacity:1" />
      <g
         id="g5874"
         style="fill:#000000;fill-opacity:1;stroke:none;stroke-width:5.3183322;stroke-miterlimit:4;stroke-dasharray:none;stroke-opacity:1" />
      <g
         id="g5876"
         style="fill:#000000;fill-opacity:1;stroke:none;stroke-width:5.3183322;stroke-miterlimit:4;stroke-dasharray:none;stroke-opacity:1" />
    </g>
    <path
       style="opacity:1;fill:#aaccff;fill-opacity:1;stroke:#000000;stroke-width:0.02569593;stroke-miterlimit:4;stroke-dasharray:none;stroke-dashoffset:0;stroke-opacity:1"
       d="m 183.88751,341.00714 -0.12459,-0.13263 v -3.18669 -3.1867 l 0.12133,-0.0982 c 0.11268,-0.0912 0.21908,-0.0982 1.49425,-0.0982 1.36866,0 1.37328,3.7e-4 1.48467,0.11895 l 0.11174,0.11894 v 3.17247 3.17247 l -0.12614,0.12615 -0.12614,0.12615 h -1.35527 -1.35526 z"
       id="path838"
       inkscape:connector-curvature="0" />
    <path
       style="opacity:1;fill:#aaccff;fill-opacity:1;stroke:#000000;stroke-width:0.02569593;stroke-miterlimit:4;stroke-dasharray:none;stroke-dashoffset:0;stroke-opacity:1"
       d="m 188.77363,342.93848 c -0.10141,-0.10141 -0.10279,-0.1713 -0.10279,-5.23824 v -5.13545 l 0.13819,-0.1087 c 0.13452,-0.10582 0.17747,-0.10829 1.62344,-0.0937 l 1.48527,0.015 0.0982,0.12133 c 0.0952,0.11761 0.0982,0.27775 0.0982,5.22912 0,5.03927 -0.001,5.10918 -0.10278,5.21058 -0.0981,0.0981 -0.17131,0.10278 -1.61885,0.10278 -1.44754,0 -1.5207,-0.005 -1.61884,-0.10278 z"
       id="path840"
       inkscape:connector-curvature="0" />
    <path
       style="opacity:1;fill:#aaccff;fill-opacity:1;stroke:#000000;stroke-width:0.026;stroke-miterlimit:4;stroke-dasharray:none;stroke-dashoffset:0;stroke-opacity:1"
       d="m 193.94544,341.03325 -0.13541,-0.10651 v -3.20626 -3.20626 l 0.11248,-0.10479 0.11247,-0.10478 h 11.673 11.673 l 0.11174,0.11894 0.11174,0.11895 v 3.1921 3.1921 l -0.13541,0.10651 -0.13541,0.10652 h -11.62639 -11.6264 z"
       id="path842"
       inkscape:connector-curvature="0" />
    <path
       style="opacity:1;fill:#aaccff;fill-opacity:1;stroke:#000000;stroke-width:0.00642398;stroke-miterlimit:4;stroke-dasharray:none;stroke-dashoffset:0;stroke-opacity:1"
       d="m 219.52427,343.05602 c -0.0805,-0.0307 -0.17342,-0.11918 -0.21572,-0.20531 l -0.036,-0.0733 v -5.0621 -5.0621 l 0.0275,-0.0594 c 0.0377,-0.0814 0.11239,-0.16075 0.19014,-0.20178 l 0.065,-0.0343 h 1.46467 1.46467 l 0.0583,0.0288 c 0.0755,0.0372 0.15817,0.11965 0.19507,0.19454 l 0.0293,0.0594 v 5.07495 5.07494 l -0.0311,0.0632 c -0.0383,0.0778 -0.11161,0.15057 -0.19128,0.18981 l -0.0603,0.0297 -1.45182,0.002 c -1.33315,0.002 -1.45645,5.8e-4 -1.50847,-0.0193 z"
       id="path848"
       inkscape:connector-curvature="0" />
    <path
       style="opacity:1;fill:#aaccff;fill-opacity:1;stroke:#000000;stroke-width:0.00642398;stroke-miterlimit:4;stroke-dasharray:none;stroke-dashoffset:0;stroke-opacity:1"
       d="m 224.68417,341.13376 c -0.11248,-0.0404 -0.18754,-0.11228 -0.24312,-0.23283 l -0.0293,-0.0635 v -3.12233 -3.12232 l 0.0428,-0.087 c 0.0305,-0.062 0.0609,-0.10132 0.10573,-0.13673 0.12223,-0.0966 0.0324,-0.0914 1.50322,-0.0875 l 1.3161,0.003 0.0552,0.0295 c 0.085,0.0454 0.15251,0.11342 0.19174,0.1933 l 0.0357,0.0727 v 3.13491 3.1349 l -0.0357,0.0727 c -0.0392,0.0799 -0.1067,0.1479 -0.19176,0.19331 l -0.0552,0.0295 -1.32334,0.003 c -1.09057,0.002 -1.33192,-3.1e-4 -1.37212,-0.0148 z"
       id="path850"
       inkscape:connector-curvature="0" />
  </g>
</svg>
